%TF.GenerationSoftware,KiCad,Pcbnew,(6.0.5)*%
%TF.CreationDate,2022-08-02T11:06:51+05:30*%
%TF.ProjectId,ESP12 Smart Remote,45535031-3220-4536-9d61-72742052656d,rev?*%
%TF.SameCoordinates,Original*%
%TF.FileFunction,Copper,L2,Bot*%
%TF.FilePolarity,Positive*%
%FSLAX46Y46*%
G04 Gerber Fmt 4.6, Leading zero omitted, Abs format (unit mm)*
G04 Created by KiCad (PCBNEW (6.0.5)) date 2022-08-02 11:06:51*
%MOMM*%
%LPD*%
G01*
G04 APERTURE LIST*
G04 Aperture macros list*
%AMRoundRect*
0 Rectangle with rounded corners*
0 $1 Rounding radius*
0 $2 $3 $4 $5 $6 $7 $8 $9 X,Y pos of 4 corners*
0 Add a 4 corners polygon primitive as box body*
4,1,4,$2,$3,$4,$5,$6,$7,$8,$9,$2,$3,0*
0 Add four circle primitives for the rounded corners*
1,1,$1+$1,$2,$3*
1,1,$1+$1,$4,$5*
1,1,$1+$1,$6,$7*
1,1,$1+$1,$8,$9*
0 Add four rect primitives between the rounded corners*
20,1,$1+$1,$2,$3,$4,$5,0*
20,1,$1+$1,$4,$5,$6,$7,0*
20,1,$1+$1,$6,$7,$8,$9,0*
20,1,$1+$1,$8,$9,$2,$3,0*%
G04 Aperture macros list end*
%TA.AperFunction,EtchedComponent*%
%ADD10C,0.010000*%
%TD*%
%TA.AperFunction,ComponentPad*%
%ADD11C,2.000000*%
%TD*%
%TA.AperFunction,ComponentPad*%
%ADD12C,1.600000*%
%TD*%
%TA.AperFunction,ComponentPad*%
%ADD13O,1.600000X1.600000*%
%TD*%
%TA.AperFunction,ComponentPad*%
%ADD14R,1.700000X1.700000*%
%TD*%
%TA.AperFunction,ComponentPad*%
%ADD15O,1.700000X1.700000*%
%TD*%
%TA.AperFunction,ComponentPad*%
%ADD16O,1.600000X0.800000*%
%TD*%
%TA.AperFunction,SMDPad,CuDef*%
%ADD17R,2.000000X1.500000*%
%TD*%
%TA.AperFunction,SMDPad,CuDef*%
%ADD18R,2.000000X3.800000*%
%TD*%
%TA.AperFunction,SMDPad,CuDef*%
%ADD19RoundRect,0.150000X0.150000X-0.512500X0.150000X0.512500X-0.150000X0.512500X-0.150000X-0.512500X0*%
%TD*%
%TA.AperFunction,ViaPad*%
%ADD20C,0.800000*%
%TD*%
%TA.AperFunction,Conductor*%
%ADD21C,0.250000*%
%TD*%
G04 APERTURE END LIST*
%TO.C,J1*%
G36*
X140499000Y-126449000D02*
G01*
X140527000Y-126451000D01*
X140556000Y-126455000D01*
X140584000Y-126460000D01*
X140612000Y-126467000D01*
X140640000Y-126475000D01*
X140667000Y-126485000D01*
X140694000Y-126496000D01*
X140720000Y-126508000D01*
X140745000Y-126522000D01*
X140770000Y-126537000D01*
X140793000Y-126553000D01*
X140816000Y-126571000D01*
X140838000Y-126589000D01*
X140859000Y-126609000D01*
X140879000Y-126630000D01*
X140897000Y-126652000D01*
X140915000Y-126675000D01*
X140931000Y-126698000D01*
X140946000Y-126723000D01*
X140960000Y-126748000D01*
X140972000Y-126774000D01*
X140983000Y-126801000D01*
X140993000Y-126828000D01*
X141001000Y-126856000D01*
X141008000Y-126884000D01*
X141013000Y-126912000D01*
X141017000Y-126941000D01*
X141019000Y-126969000D01*
X141020000Y-126998000D01*
X141019000Y-127027000D01*
X141017000Y-127055000D01*
X141013000Y-127084000D01*
X141008000Y-127112000D01*
X141001000Y-127140000D01*
X140993000Y-127168000D01*
X140983000Y-127195000D01*
X140972000Y-127222000D01*
X140960000Y-127248000D01*
X140946000Y-127273000D01*
X140931000Y-127298000D01*
X140915000Y-127321000D01*
X140897000Y-127344000D01*
X140879000Y-127366000D01*
X140859000Y-127387000D01*
X140838000Y-127407000D01*
X140816000Y-127425000D01*
X140793000Y-127443000D01*
X140770000Y-127459000D01*
X140745000Y-127474000D01*
X140720000Y-127488000D01*
X140694000Y-127500000D01*
X140667000Y-127511000D01*
X140640000Y-127521000D01*
X140612000Y-127529000D01*
X140584000Y-127536000D01*
X140556000Y-127541000D01*
X140527000Y-127545000D01*
X140499000Y-127547000D01*
X140470000Y-127548000D01*
X139870000Y-127548000D01*
X139841000Y-127547000D01*
X139813000Y-127545000D01*
X139784000Y-127541000D01*
X139756000Y-127536000D01*
X139728000Y-127529000D01*
X139700000Y-127521000D01*
X139673000Y-127511000D01*
X139646000Y-127500000D01*
X139620000Y-127488000D01*
X139595000Y-127474000D01*
X139570000Y-127459000D01*
X139547000Y-127443000D01*
X139524000Y-127425000D01*
X139502000Y-127407000D01*
X139481000Y-127387000D01*
X139461000Y-127366000D01*
X139443000Y-127344000D01*
X139425000Y-127321000D01*
X139409000Y-127298000D01*
X139394000Y-127273000D01*
X139380000Y-127248000D01*
X139368000Y-127222000D01*
X139357000Y-127195000D01*
X139347000Y-127168000D01*
X139339000Y-127140000D01*
X139332000Y-127112000D01*
X139327000Y-127084000D01*
X139323000Y-127055000D01*
X139321000Y-127027000D01*
X139320000Y-126998000D01*
X139321000Y-126969000D01*
X139323000Y-126941000D01*
X139327000Y-126912000D01*
X139332000Y-126884000D01*
X139339000Y-126856000D01*
X139347000Y-126828000D01*
X139357000Y-126801000D01*
X139368000Y-126774000D01*
X139380000Y-126748000D01*
X139394000Y-126723000D01*
X139409000Y-126698000D01*
X139425000Y-126675000D01*
X139443000Y-126652000D01*
X139461000Y-126630000D01*
X139481000Y-126609000D01*
X139502000Y-126589000D01*
X139524000Y-126571000D01*
X139547000Y-126553000D01*
X139570000Y-126537000D01*
X139595000Y-126522000D01*
X139620000Y-126508000D01*
X139646000Y-126496000D01*
X139673000Y-126485000D01*
X139700000Y-126475000D01*
X139728000Y-126467000D01*
X139756000Y-126460000D01*
X139784000Y-126455000D01*
X139813000Y-126451000D01*
X139841000Y-126449000D01*
X139870000Y-126448000D01*
X140470000Y-126448000D01*
X140499000Y-126449000D01*
G37*
D10*
X140499000Y-126449000D02*
X140527000Y-126451000D01*
X140556000Y-126455000D01*
X140584000Y-126460000D01*
X140612000Y-126467000D01*
X140640000Y-126475000D01*
X140667000Y-126485000D01*
X140694000Y-126496000D01*
X140720000Y-126508000D01*
X140745000Y-126522000D01*
X140770000Y-126537000D01*
X140793000Y-126553000D01*
X140816000Y-126571000D01*
X140838000Y-126589000D01*
X140859000Y-126609000D01*
X140879000Y-126630000D01*
X140897000Y-126652000D01*
X140915000Y-126675000D01*
X140931000Y-126698000D01*
X140946000Y-126723000D01*
X140960000Y-126748000D01*
X140972000Y-126774000D01*
X140983000Y-126801000D01*
X140993000Y-126828000D01*
X141001000Y-126856000D01*
X141008000Y-126884000D01*
X141013000Y-126912000D01*
X141017000Y-126941000D01*
X141019000Y-126969000D01*
X141020000Y-126998000D01*
X141019000Y-127027000D01*
X141017000Y-127055000D01*
X141013000Y-127084000D01*
X141008000Y-127112000D01*
X141001000Y-127140000D01*
X140993000Y-127168000D01*
X140983000Y-127195000D01*
X140972000Y-127222000D01*
X140960000Y-127248000D01*
X140946000Y-127273000D01*
X140931000Y-127298000D01*
X140915000Y-127321000D01*
X140897000Y-127344000D01*
X140879000Y-127366000D01*
X140859000Y-127387000D01*
X140838000Y-127407000D01*
X140816000Y-127425000D01*
X140793000Y-127443000D01*
X140770000Y-127459000D01*
X140745000Y-127474000D01*
X140720000Y-127488000D01*
X140694000Y-127500000D01*
X140667000Y-127511000D01*
X140640000Y-127521000D01*
X140612000Y-127529000D01*
X140584000Y-127536000D01*
X140556000Y-127541000D01*
X140527000Y-127545000D01*
X140499000Y-127547000D01*
X140470000Y-127548000D01*
X139870000Y-127548000D01*
X139841000Y-127547000D01*
X139813000Y-127545000D01*
X139784000Y-127541000D01*
X139756000Y-127536000D01*
X139728000Y-127529000D01*
X139700000Y-127521000D01*
X139673000Y-127511000D01*
X139646000Y-127500000D01*
X139620000Y-127488000D01*
X139595000Y-127474000D01*
X139570000Y-127459000D01*
X139547000Y-127443000D01*
X139524000Y-127425000D01*
X139502000Y-127407000D01*
X139481000Y-127387000D01*
X139461000Y-127366000D01*
X139443000Y-127344000D01*
X139425000Y-127321000D01*
X139409000Y-127298000D01*
X139394000Y-127273000D01*
X139380000Y-127248000D01*
X139368000Y-127222000D01*
X139357000Y-127195000D01*
X139347000Y-127168000D01*
X139339000Y-127140000D01*
X139332000Y-127112000D01*
X139327000Y-127084000D01*
X139323000Y-127055000D01*
X139321000Y-127027000D01*
X139320000Y-126998000D01*
X139321000Y-126969000D01*
X139323000Y-126941000D01*
X139327000Y-126912000D01*
X139332000Y-126884000D01*
X139339000Y-126856000D01*
X139347000Y-126828000D01*
X139357000Y-126801000D01*
X139368000Y-126774000D01*
X139380000Y-126748000D01*
X139394000Y-126723000D01*
X139409000Y-126698000D01*
X139425000Y-126675000D01*
X139443000Y-126652000D01*
X139461000Y-126630000D01*
X139481000Y-126609000D01*
X139502000Y-126589000D01*
X139524000Y-126571000D01*
X139547000Y-126553000D01*
X139570000Y-126537000D01*
X139595000Y-126522000D01*
X139620000Y-126508000D01*
X139646000Y-126496000D01*
X139673000Y-126485000D01*
X139700000Y-126475000D01*
X139728000Y-126467000D01*
X139756000Y-126460000D01*
X139784000Y-126455000D01*
X139813000Y-126451000D01*
X139841000Y-126449000D01*
X139870000Y-126448000D01*
X140470000Y-126448000D01*
X140499000Y-126449000D01*
G36*
X144299000Y-135089000D02*
G01*
X144327000Y-135091000D01*
X144356000Y-135095000D01*
X144384000Y-135100000D01*
X144412000Y-135107000D01*
X144440000Y-135115000D01*
X144467000Y-135125000D01*
X144494000Y-135136000D01*
X144520000Y-135148000D01*
X144545000Y-135162000D01*
X144570000Y-135177000D01*
X144593000Y-135193000D01*
X144616000Y-135211000D01*
X144638000Y-135229000D01*
X144659000Y-135249000D01*
X144679000Y-135270000D01*
X144697000Y-135292000D01*
X144715000Y-135315000D01*
X144731000Y-135338000D01*
X144746000Y-135363000D01*
X144760000Y-135388000D01*
X144772000Y-135414000D01*
X144783000Y-135441000D01*
X144793000Y-135468000D01*
X144801000Y-135496000D01*
X144808000Y-135524000D01*
X144813000Y-135552000D01*
X144817000Y-135581000D01*
X144819000Y-135609000D01*
X144820000Y-135638000D01*
X144819000Y-135667000D01*
X144817000Y-135695000D01*
X144813000Y-135724000D01*
X144808000Y-135752000D01*
X144801000Y-135780000D01*
X144793000Y-135808000D01*
X144783000Y-135835000D01*
X144772000Y-135862000D01*
X144760000Y-135888000D01*
X144746000Y-135913000D01*
X144731000Y-135938000D01*
X144715000Y-135961000D01*
X144697000Y-135984000D01*
X144679000Y-136006000D01*
X144659000Y-136027000D01*
X144638000Y-136047000D01*
X144616000Y-136065000D01*
X144593000Y-136083000D01*
X144570000Y-136099000D01*
X144545000Y-136114000D01*
X144520000Y-136128000D01*
X144494000Y-136140000D01*
X144467000Y-136151000D01*
X144440000Y-136161000D01*
X144412000Y-136169000D01*
X144384000Y-136176000D01*
X144356000Y-136181000D01*
X144327000Y-136185000D01*
X144299000Y-136187000D01*
X144270000Y-136188000D01*
X143670000Y-136188000D01*
X143641000Y-136187000D01*
X143613000Y-136185000D01*
X143584000Y-136181000D01*
X143556000Y-136176000D01*
X143528000Y-136169000D01*
X143500000Y-136161000D01*
X143473000Y-136151000D01*
X143446000Y-136140000D01*
X143420000Y-136128000D01*
X143395000Y-136114000D01*
X143370000Y-136099000D01*
X143347000Y-136083000D01*
X143324000Y-136065000D01*
X143302000Y-136047000D01*
X143281000Y-136027000D01*
X143261000Y-136006000D01*
X143243000Y-135984000D01*
X143225000Y-135961000D01*
X143209000Y-135938000D01*
X143194000Y-135913000D01*
X143180000Y-135888000D01*
X143168000Y-135862000D01*
X143157000Y-135835000D01*
X143147000Y-135808000D01*
X143139000Y-135780000D01*
X143132000Y-135752000D01*
X143127000Y-135724000D01*
X143123000Y-135695000D01*
X143121000Y-135667000D01*
X143120000Y-135638000D01*
X143121000Y-135609000D01*
X143123000Y-135581000D01*
X143127000Y-135552000D01*
X143132000Y-135524000D01*
X143139000Y-135496000D01*
X143147000Y-135468000D01*
X143157000Y-135441000D01*
X143168000Y-135414000D01*
X143180000Y-135388000D01*
X143194000Y-135363000D01*
X143209000Y-135338000D01*
X143225000Y-135315000D01*
X143243000Y-135292000D01*
X143261000Y-135270000D01*
X143281000Y-135249000D01*
X143302000Y-135229000D01*
X143324000Y-135211000D01*
X143347000Y-135193000D01*
X143370000Y-135177000D01*
X143395000Y-135162000D01*
X143420000Y-135148000D01*
X143446000Y-135136000D01*
X143473000Y-135125000D01*
X143500000Y-135115000D01*
X143528000Y-135107000D01*
X143556000Y-135100000D01*
X143584000Y-135095000D01*
X143613000Y-135091000D01*
X143641000Y-135089000D01*
X143670000Y-135088000D01*
X144270000Y-135088000D01*
X144299000Y-135089000D01*
G37*
X144299000Y-135089000D02*
X144327000Y-135091000D01*
X144356000Y-135095000D01*
X144384000Y-135100000D01*
X144412000Y-135107000D01*
X144440000Y-135115000D01*
X144467000Y-135125000D01*
X144494000Y-135136000D01*
X144520000Y-135148000D01*
X144545000Y-135162000D01*
X144570000Y-135177000D01*
X144593000Y-135193000D01*
X144616000Y-135211000D01*
X144638000Y-135229000D01*
X144659000Y-135249000D01*
X144679000Y-135270000D01*
X144697000Y-135292000D01*
X144715000Y-135315000D01*
X144731000Y-135338000D01*
X144746000Y-135363000D01*
X144760000Y-135388000D01*
X144772000Y-135414000D01*
X144783000Y-135441000D01*
X144793000Y-135468000D01*
X144801000Y-135496000D01*
X144808000Y-135524000D01*
X144813000Y-135552000D01*
X144817000Y-135581000D01*
X144819000Y-135609000D01*
X144820000Y-135638000D01*
X144819000Y-135667000D01*
X144817000Y-135695000D01*
X144813000Y-135724000D01*
X144808000Y-135752000D01*
X144801000Y-135780000D01*
X144793000Y-135808000D01*
X144783000Y-135835000D01*
X144772000Y-135862000D01*
X144760000Y-135888000D01*
X144746000Y-135913000D01*
X144731000Y-135938000D01*
X144715000Y-135961000D01*
X144697000Y-135984000D01*
X144679000Y-136006000D01*
X144659000Y-136027000D01*
X144638000Y-136047000D01*
X144616000Y-136065000D01*
X144593000Y-136083000D01*
X144570000Y-136099000D01*
X144545000Y-136114000D01*
X144520000Y-136128000D01*
X144494000Y-136140000D01*
X144467000Y-136151000D01*
X144440000Y-136161000D01*
X144412000Y-136169000D01*
X144384000Y-136176000D01*
X144356000Y-136181000D01*
X144327000Y-136185000D01*
X144299000Y-136187000D01*
X144270000Y-136188000D01*
X143670000Y-136188000D01*
X143641000Y-136187000D01*
X143613000Y-136185000D01*
X143584000Y-136181000D01*
X143556000Y-136176000D01*
X143528000Y-136169000D01*
X143500000Y-136161000D01*
X143473000Y-136151000D01*
X143446000Y-136140000D01*
X143420000Y-136128000D01*
X143395000Y-136114000D01*
X143370000Y-136099000D01*
X143347000Y-136083000D01*
X143324000Y-136065000D01*
X143302000Y-136047000D01*
X143281000Y-136027000D01*
X143261000Y-136006000D01*
X143243000Y-135984000D01*
X143225000Y-135961000D01*
X143209000Y-135938000D01*
X143194000Y-135913000D01*
X143180000Y-135888000D01*
X143168000Y-135862000D01*
X143157000Y-135835000D01*
X143147000Y-135808000D01*
X143139000Y-135780000D01*
X143132000Y-135752000D01*
X143127000Y-135724000D01*
X143123000Y-135695000D01*
X143121000Y-135667000D01*
X143120000Y-135638000D01*
X143121000Y-135609000D01*
X143123000Y-135581000D01*
X143127000Y-135552000D01*
X143132000Y-135524000D01*
X143139000Y-135496000D01*
X143147000Y-135468000D01*
X143157000Y-135441000D01*
X143168000Y-135414000D01*
X143180000Y-135388000D01*
X143194000Y-135363000D01*
X143209000Y-135338000D01*
X143225000Y-135315000D01*
X143243000Y-135292000D01*
X143261000Y-135270000D01*
X143281000Y-135249000D01*
X143302000Y-135229000D01*
X143324000Y-135211000D01*
X143347000Y-135193000D01*
X143370000Y-135177000D01*
X143395000Y-135162000D01*
X143420000Y-135148000D01*
X143446000Y-135136000D01*
X143473000Y-135125000D01*
X143500000Y-135115000D01*
X143528000Y-135107000D01*
X143556000Y-135100000D01*
X143584000Y-135095000D01*
X143613000Y-135091000D01*
X143641000Y-135089000D01*
X143670000Y-135088000D01*
X144270000Y-135088000D01*
X144299000Y-135089000D01*
G36*
X144299000Y-126449000D02*
G01*
X144327000Y-126451000D01*
X144356000Y-126455000D01*
X144384000Y-126460000D01*
X144412000Y-126467000D01*
X144440000Y-126475000D01*
X144467000Y-126485000D01*
X144494000Y-126496000D01*
X144520000Y-126508000D01*
X144545000Y-126522000D01*
X144570000Y-126537000D01*
X144593000Y-126553000D01*
X144616000Y-126571000D01*
X144638000Y-126589000D01*
X144659000Y-126609000D01*
X144679000Y-126630000D01*
X144697000Y-126652000D01*
X144715000Y-126675000D01*
X144731000Y-126698000D01*
X144746000Y-126723000D01*
X144760000Y-126748000D01*
X144772000Y-126774000D01*
X144783000Y-126801000D01*
X144793000Y-126828000D01*
X144801000Y-126856000D01*
X144808000Y-126884000D01*
X144813000Y-126912000D01*
X144817000Y-126941000D01*
X144819000Y-126969000D01*
X144820000Y-126998000D01*
X144819000Y-127027000D01*
X144817000Y-127055000D01*
X144813000Y-127084000D01*
X144808000Y-127112000D01*
X144801000Y-127140000D01*
X144793000Y-127168000D01*
X144783000Y-127195000D01*
X144772000Y-127222000D01*
X144760000Y-127248000D01*
X144746000Y-127273000D01*
X144731000Y-127298000D01*
X144715000Y-127321000D01*
X144697000Y-127344000D01*
X144679000Y-127366000D01*
X144659000Y-127387000D01*
X144638000Y-127407000D01*
X144616000Y-127425000D01*
X144593000Y-127443000D01*
X144570000Y-127459000D01*
X144545000Y-127474000D01*
X144520000Y-127488000D01*
X144494000Y-127500000D01*
X144467000Y-127511000D01*
X144440000Y-127521000D01*
X144412000Y-127529000D01*
X144384000Y-127536000D01*
X144356000Y-127541000D01*
X144327000Y-127545000D01*
X144299000Y-127547000D01*
X144270000Y-127548000D01*
X143670000Y-127548000D01*
X143641000Y-127547000D01*
X143613000Y-127545000D01*
X143584000Y-127541000D01*
X143556000Y-127536000D01*
X143528000Y-127529000D01*
X143500000Y-127521000D01*
X143473000Y-127511000D01*
X143446000Y-127500000D01*
X143420000Y-127488000D01*
X143395000Y-127474000D01*
X143370000Y-127459000D01*
X143347000Y-127443000D01*
X143324000Y-127425000D01*
X143302000Y-127407000D01*
X143281000Y-127387000D01*
X143261000Y-127366000D01*
X143243000Y-127344000D01*
X143225000Y-127321000D01*
X143209000Y-127298000D01*
X143194000Y-127273000D01*
X143180000Y-127248000D01*
X143168000Y-127222000D01*
X143157000Y-127195000D01*
X143147000Y-127168000D01*
X143139000Y-127140000D01*
X143132000Y-127112000D01*
X143127000Y-127084000D01*
X143123000Y-127055000D01*
X143121000Y-127027000D01*
X143120000Y-126998000D01*
X143121000Y-126969000D01*
X143123000Y-126941000D01*
X143127000Y-126912000D01*
X143132000Y-126884000D01*
X143139000Y-126856000D01*
X143147000Y-126828000D01*
X143157000Y-126801000D01*
X143168000Y-126774000D01*
X143180000Y-126748000D01*
X143194000Y-126723000D01*
X143209000Y-126698000D01*
X143225000Y-126675000D01*
X143243000Y-126652000D01*
X143261000Y-126630000D01*
X143281000Y-126609000D01*
X143302000Y-126589000D01*
X143324000Y-126571000D01*
X143347000Y-126553000D01*
X143370000Y-126537000D01*
X143395000Y-126522000D01*
X143420000Y-126508000D01*
X143446000Y-126496000D01*
X143473000Y-126485000D01*
X143500000Y-126475000D01*
X143528000Y-126467000D01*
X143556000Y-126460000D01*
X143584000Y-126455000D01*
X143613000Y-126451000D01*
X143641000Y-126449000D01*
X143670000Y-126448000D01*
X144270000Y-126448000D01*
X144299000Y-126449000D01*
G37*
X144299000Y-126449000D02*
X144327000Y-126451000D01*
X144356000Y-126455000D01*
X144384000Y-126460000D01*
X144412000Y-126467000D01*
X144440000Y-126475000D01*
X144467000Y-126485000D01*
X144494000Y-126496000D01*
X144520000Y-126508000D01*
X144545000Y-126522000D01*
X144570000Y-126537000D01*
X144593000Y-126553000D01*
X144616000Y-126571000D01*
X144638000Y-126589000D01*
X144659000Y-126609000D01*
X144679000Y-126630000D01*
X144697000Y-126652000D01*
X144715000Y-126675000D01*
X144731000Y-126698000D01*
X144746000Y-126723000D01*
X144760000Y-126748000D01*
X144772000Y-126774000D01*
X144783000Y-126801000D01*
X144793000Y-126828000D01*
X144801000Y-126856000D01*
X144808000Y-126884000D01*
X144813000Y-126912000D01*
X144817000Y-126941000D01*
X144819000Y-126969000D01*
X144820000Y-126998000D01*
X144819000Y-127027000D01*
X144817000Y-127055000D01*
X144813000Y-127084000D01*
X144808000Y-127112000D01*
X144801000Y-127140000D01*
X144793000Y-127168000D01*
X144783000Y-127195000D01*
X144772000Y-127222000D01*
X144760000Y-127248000D01*
X144746000Y-127273000D01*
X144731000Y-127298000D01*
X144715000Y-127321000D01*
X144697000Y-127344000D01*
X144679000Y-127366000D01*
X144659000Y-127387000D01*
X144638000Y-127407000D01*
X144616000Y-127425000D01*
X144593000Y-127443000D01*
X144570000Y-127459000D01*
X144545000Y-127474000D01*
X144520000Y-127488000D01*
X144494000Y-127500000D01*
X144467000Y-127511000D01*
X144440000Y-127521000D01*
X144412000Y-127529000D01*
X144384000Y-127536000D01*
X144356000Y-127541000D01*
X144327000Y-127545000D01*
X144299000Y-127547000D01*
X144270000Y-127548000D01*
X143670000Y-127548000D01*
X143641000Y-127547000D01*
X143613000Y-127545000D01*
X143584000Y-127541000D01*
X143556000Y-127536000D01*
X143528000Y-127529000D01*
X143500000Y-127521000D01*
X143473000Y-127511000D01*
X143446000Y-127500000D01*
X143420000Y-127488000D01*
X143395000Y-127474000D01*
X143370000Y-127459000D01*
X143347000Y-127443000D01*
X143324000Y-127425000D01*
X143302000Y-127407000D01*
X143281000Y-127387000D01*
X143261000Y-127366000D01*
X143243000Y-127344000D01*
X143225000Y-127321000D01*
X143209000Y-127298000D01*
X143194000Y-127273000D01*
X143180000Y-127248000D01*
X143168000Y-127222000D01*
X143157000Y-127195000D01*
X143147000Y-127168000D01*
X143139000Y-127140000D01*
X143132000Y-127112000D01*
X143127000Y-127084000D01*
X143123000Y-127055000D01*
X143121000Y-127027000D01*
X143120000Y-126998000D01*
X143121000Y-126969000D01*
X143123000Y-126941000D01*
X143127000Y-126912000D01*
X143132000Y-126884000D01*
X143139000Y-126856000D01*
X143147000Y-126828000D01*
X143157000Y-126801000D01*
X143168000Y-126774000D01*
X143180000Y-126748000D01*
X143194000Y-126723000D01*
X143209000Y-126698000D01*
X143225000Y-126675000D01*
X143243000Y-126652000D01*
X143261000Y-126630000D01*
X143281000Y-126609000D01*
X143302000Y-126589000D01*
X143324000Y-126571000D01*
X143347000Y-126553000D01*
X143370000Y-126537000D01*
X143395000Y-126522000D01*
X143420000Y-126508000D01*
X143446000Y-126496000D01*
X143473000Y-126485000D01*
X143500000Y-126475000D01*
X143528000Y-126467000D01*
X143556000Y-126460000D01*
X143584000Y-126455000D01*
X143613000Y-126451000D01*
X143641000Y-126449000D01*
X143670000Y-126448000D01*
X144270000Y-126448000D01*
X144299000Y-126449000D01*
G36*
X140499000Y-135089000D02*
G01*
X140527000Y-135091000D01*
X140556000Y-135095000D01*
X140584000Y-135100000D01*
X140612000Y-135107000D01*
X140640000Y-135115000D01*
X140667000Y-135125000D01*
X140694000Y-135136000D01*
X140720000Y-135148000D01*
X140745000Y-135162000D01*
X140770000Y-135177000D01*
X140793000Y-135193000D01*
X140816000Y-135211000D01*
X140838000Y-135229000D01*
X140859000Y-135249000D01*
X140879000Y-135270000D01*
X140897000Y-135292000D01*
X140915000Y-135315000D01*
X140931000Y-135338000D01*
X140946000Y-135363000D01*
X140960000Y-135388000D01*
X140972000Y-135414000D01*
X140983000Y-135441000D01*
X140993000Y-135468000D01*
X141001000Y-135496000D01*
X141008000Y-135524000D01*
X141013000Y-135552000D01*
X141017000Y-135581000D01*
X141019000Y-135609000D01*
X141020000Y-135638000D01*
X141019000Y-135667000D01*
X141017000Y-135695000D01*
X141013000Y-135724000D01*
X141008000Y-135752000D01*
X141001000Y-135780000D01*
X140993000Y-135808000D01*
X140983000Y-135835000D01*
X140972000Y-135862000D01*
X140960000Y-135888000D01*
X140946000Y-135913000D01*
X140931000Y-135938000D01*
X140915000Y-135961000D01*
X140897000Y-135984000D01*
X140879000Y-136006000D01*
X140859000Y-136027000D01*
X140838000Y-136047000D01*
X140816000Y-136065000D01*
X140793000Y-136083000D01*
X140770000Y-136099000D01*
X140745000Y-136114000D01*
X140720000Y-136128000D01*
X140694000Y-136140000D01*
X140667000Y-136151000D01*
X140640000Y-136161000D01*
X140612000Y-136169000D01*
X140584000Y-136176000D01*
X140556000Y-136181000D01*
X140527000Y-136185000D01*
X140499000Y-136187000D01*
X140470000Y-136188000D01*
X139870000Y-136188000D01*
X139841000Y-136187000D01*
X139813000Y-136185000D01*
X139784000Y-136181000D01*
X139756000Y-136176000D01*
X139728000Y-136169000D01*
X139700000Y-136161000D01*
X139673000Y-136151000D01*
X139646000Y-136140000D01*
X139620000Y-136128000D01*
X139595000Y-136114000D01*
X139570000Y-136099000D01*
X139547000Y-136083000D01*
X139524000Y-136065000D01*
X139502000Y-136047000D01*
X139481000Y-136027000D01*
X139461000Y-136006000D01*
X139443000Y-135984000D01*
X139425000Y-135961000D01*
X139409000Y-135938000D01*
X139394000Y-135913000D01*
X139380000Y-135888000D01*
X139368000Y-135862000D01*
X139357000Y-135835000D01*
X139347000Y-135808000D01*
X139339000Y-135780000D01*
X139332000Y-135752000D01*
X139327000Y-135724000D01*
X139323000Y-135695000D01*
X139321000Y-135667000D01*
X139320000Y-135638000D01*
X139321000Y-135609000D01*
X139323000Y-135581000D01*
X139327000Y-135552000D01*
X139332000Y-135524000D01*
X139339000Y-135496000D01*
X139347000Y-135468000D01*
X139357000Y-135441000D01*
X139368000Y-135414000D01*
X139380000Y-135388000D01*
X139394000Y-135363000D01*
X139409000Y-135338000D01*
X139425000Y-135315000D01*
X139443000Y-135292000D01*
X139461000Y-135270000D01*
X139481000Y-135249000D01*
X139502000Y-135229000D01*
X139524000Y-135211000D01*
X139547000Y-135193000D01*
X139570000Y-135177000D01*
X139595000Y-135162000D01*
X139620000Y-135148000D01*
X139646000Y-135136000D01*
X139673000Y-135125000D01*
X139700000Y-135115000D01*
X139728000Y-135107000D01*
X139756000Y-135100000D01*
X139784000Y-135095000D01*
X139813000Y-135091000D01*
X139841000Y-135089000D01*
X139870000Y-135088000D01*
X140470000Y-135088000D01*
X140499000Y-135089000D01*
G37*
X140499000Y-135089000D02*
X140527000Y-135091000D01*
X140556000Y-135095000D01*
X140584000Y-135100000D01*
X140612000Y-135107000D01*
X140640000Y-135115000D01*
X140667000Y-135125000D01*
X140694000Y-135136000D01*
X140720000Y-135148000D01*
X140745000Y-135162000D01*
X140770000Y-135177000D01*
X140793000Y-135193000D01*
X140816000Y-135211000D01*
X140838000Y-135229000D01*
X140859000Y-135249000D01*
X140879000Y-135270000D01*
X140897000Y-135292000D01*
X140915000Y-135315000D01*
X140931000Y-135338000D01*
X140946000Y-135363000D01*
X140960000Y-135388000D01*
X140972000Y-135414000D01*
X140983000Y-135441000D01*
X140993000Y-135468000D01*
X141001000Y-135496000D01*
X141008000Y-135524000D01*
X141013000Y-135552000D01*
X141017000Y-135581000D01*
X141019000Y-135609000D01*
X141020000Y-135638000D01*
X141019000Y-135667000D01*
X141017000Y-135695000D01*
X141013000Y-135724000D01*
X141008000Y-135752000D01*
X141001000Y-135780000D01*
X140993000Y-135808000D01*
X140983000Y-135835000D01*
X140972000Y-135862000D01*
X140960000Y-135888000D01*
X140946000Y-135913000D01*
X140931000Y-135938000D01*
X140915000Y-135961000D01*
X140897000Y-135984000D01*
X140879000Y-136006000D01*
X140859000Y-136027000D01*
X140838000Y-136047000D01*
X140816000Y-136065000D01*
X140793000Y-136083000D01*
X140770000Y-136099000D01*
X140745000Y-136114000D01*
X140720000Y-136128000D01*
X140694000Y-136140000D01*
X140667000Y-136151000D01*
X140640000Y-136161000D01*
X140612000Y-136169000D01*
X140584000Y-136176000D01*
X140556000Y-136181000D01*
X140527000Y-136185000D01*
X140499000Y-136187000D01*
X140470000Y-136188000D01*
X139870000Y-136188000D01*
X139841000Y-136187000D01*
X139813000Y-136185000D01*
X139784000Y-136181000D01*
X139756000Y-136176000D01*
X139728000Y-136169000D01*
X139700000Y-136161000D01*
X139673000Y-136151000D01*
X139646000Y-136140000D01*
X139620000Y-136128000D01*
X139595000Y-136114000D01*
X139570000Y-136099000D01*
X139547000Y-136083000D01*
X139524000Y-136065000D01*
X139502000Y-136047000D01*
X139481000Y-136027000D01*
X139461000Y-136006000D01*
X139443000Y-135984000D01*
X139425000Y-135961000D01*
X139409000Y-135938000D01*
X139394000Y-135913000D01*
X139380000Y-135888000D01*
X139368000Y-135862000D01*
X139357000Y-135835000D01*
X139347000Y-135808000D01*
X139339000Y-135780000D01*
X139332000Y-135752000D01*
X139327000Y-135724000D01*
X139323000Y-135695000D01*
X139321000Y-135667000D01*
X139320000Y-135638000D01*
X139321000Y-135609000D01*
X139323000Y-135581000D01*
X139327000Y-135552000D01*
X139332000Y-135524000D01*
X139339000Y-135496000D01*
X139347000Y-135468000D01*
X139357000Y-135441000D01*
X139368000Y-135414000D01*
X139380000Y-135388000D01*
X139394000Y-135363000D01*
X139409000Y-135338000D01*
X139425000Y-135315000D01*
X139443000Y-135292000D01*
X139461000Y-135270000D01*
X139481000Y-135249000D01*
X139502000Y-135229000D01*
X139524000Y-135211000D01*
X139547000Y-135193000D01*
X139570000Y-135177000D01*
X139595000Y-135162000D01*
X139620000Y-135148000D01*
X139646000Y-135136000D01*
X139673000Y-135125000D01*
X139700000Y-135115000D01*
X139728000Y-135107000D01*
X139756000Y-135100000D01*
X139784000Y-135095000D01*
X139813000Y-135091000D01*
X139841000Y-135089000D01*
X139870000Y-135088000D01*
X140470000Y-135088000D01*
X140499000Y-135089000D01*
%TD*%
D11*
%TO.P,SW6,1,1*%
%TO.N,D2*%
X166616000Y-70800000D03*
X160116000Y-70800000D03*
%TO.P,SW6,2,2*%
%TO.N,3V3*%
X166616000Y-75300000D03*
X160116000Y-75300000D03*
%TD*%
D12*
%TO.P,R6,1*%
%TO.N,Net-(R6-Pad1)*%
X143637000Y-102870000D03*
D13*
%TO.P,R6,2*%
%TO.N,GND*%
X143637000Y-95250000D03*
%TD*%
D12*
%TO.P,R5,1*%
%TO.N,3V3*%
X139573000Y-90297000D03*
D13*
%TO.P,R5,2*%
%TO.N,GPIO0*%
X139573000Y-97917000D03*
%TD*%
D12*
%TO.P,R15,1*%
%TO.N,D1*%
X161671000Y-87376000D03*
D13*
%TO.P,R15,2*%
%TO.N,GND*%
X161671000Y-79756000D03*
%TD*%
D11*
%TO.P,SW4,1,1*%
%TO.N,D7*%
X160116000Y-58100000D03*
X166616000Y-58100000D03*
%TO.P,SW4,2,2*%
%TO.N,3V3*%
X166616000Y-62600000D03*
X160116000Y-62600000D03*
%TD*%
D12*
%TO.P,R8,1*%
%TO.N,Net-(J8-Pad2)*%
X165735000Y-117856000D03*
D13*
%TO.P,R8,2*%
%TO.N,Net-(D1-Pad2)*%
X165735000Y-110236000D03*
%TD*%
D11*
%TO.P,SW1,1,1*%
%TO.N,D6*%
X142660000Y-45400000D03*
X149160000Y-45400000D03*
%TO.P,SW1,2,2*%
%TO.N,3V3*%
X149160000Y-49900000D03*
X142660000Y-49900000D03*
%TD*%
D14*
%TO.P,J7,1,Pin_1*%
%TO.N,Net-(J6-Pad4)*%
X163195000Y-134620000D03*
D15*
%TO.P,J7,2,Pin_2*%
%TO.N,GND*%
X160655000Y-134620000D03*
%TD*%
D11*
%TO.P,SW3,1,1*%
%TO.N,D5*%
X149160000Y-58100000D03*
X142660000Y-58100000D03*
%TO.P,SW3,2,2*%
%TO.N,3V3*%
X149160000Y-62600000D03*
X142660000Y-62600000D03*
%TD*%
D12*
%TO.P,R11,1*%
%TO.N,TX*%
X139573000Y-79883000D03*
D13*
%TO.P,R11,2*%
%TO.N,3V3*%
X139573000Y-87503000D03*
%TD*%
D14*
%TO.P,SW7,1,A*%
%TO.N,VCC*%
X151115000Y-138430000D03*
D15*
%TO.P,SW7,2,B*%
%TO.N,Battery O{slash}P*%
X148575000Y-138430000D03*
%TO.P,SW7,3,C*%
%TO.N,unconnected-(SW7-Pad3)*%
X146035000Y-138430000D03*
%TD*%
D11*
%TO.P,SW2,1,1*%
%TO.N,TX*%
X166616000Y-45400000D03*
X160116000Y-45400000D03*
%TO.P,SW2,2,2*%
%TO.N,GND*%
X160116000Y-49900000D03*
X166616000Y-49900000D03*
%TD*%
D14*
%TO.P,J2,1,Pin_1*%
%TO.N,TX*%
X143510000Y-107061000D03*
%TD*%
D12*
%TO.P,R16,1*%
%TO.N,D2*%
X169672000Y-92837000D03*
D13*
%TO.P,R16,2*%
%TO.N,GND*%
X169672000Y-85217000D03*
%TD*%
D14*
%TO.P,J4,1,Pin_1*%
%TO.N,Net-(J4-Pad1)*%
X139192000Y-107061000D03*
%TD*%
D12*
%TO.P,R7,1*%
%TO.N,3V3*%
X143637000Y-84836000D03*
D13*
%TO.P,R7,2*%
%TO.N,Net-(J4-Pad1)*%
X143637000Y-92456000D03*
%TD*%
D12*
%TO.P,R12,1*%
%TO.N,D5*%
X147701000Y-98552000D03*
D13*
%TO.P,R12,2*%
%TO.N,GND*%
X147701000Y-90932000D03*
%TD*%
D12*
%TO.P,R1,1*%
%TO.N,3V3*%
X165735000Y-79756000D03*
D13*
%TO.P,R1,2*%
%TO.N,Net-(R1-Pad2)*%
X165735000Y-87376000D03*
%TD*%
D12*
%TO.P,R13,1*%
%TO.N,Net-(R13-Pad1)*%
X169672000Y-103124000D03*
D13*
%TO.P,R13,2*%
%TO.N,GND*%
X169672000Y-95504000D03*
%TD*%
D12*
%TO.P,R3,1*%
%TO.N,Net-(J1-PadB5)*%
X139319000Y-124841000D03*
D13*
%TO.P,R3,2*%
%TO.N,GND*%
X139319000Y-117221000D03*
%TD*%
D12*
%TO.P,R14,1*%
%TO.N,D7*%
X161671000Y-97663000D03*
D13*
%TO.P,R14,2*%
%TO.N,GND*%
X161671000Y-90043000D03*
%TD*%
D14*
%TO.P,J3,1,Pin_1*%
%TO.N,Net-(J3-Pad1)*%
X139319000Y-100965000D03*
%TD*%
D12*
%TO.P,R9,1*%
%TO.N,Net-(D2-Pad1)*%
X165735000Y-107950000D03*
D13*
%TO.P,R9,2*%
%TO.N,GND*%
X165735000Y-100330000D03*
%TD*%
D14*
%TO.P,J8,1,Pin_1*%
%TO.N,Micro USB*%
X163211000Y-138430000D03*
D15*
%TO.P,J8,2,Pin_2*%
%TO.N,Net-(J8-Pad2)*%
X160671000Y-138430000D03*
%TO.P,J8,3,Pin_3*%
%TO.N,Net-(C1-Pad1)*%
X158131000Y-138430000D03*
%TD*%
D14*
%TO.P,J5,1,Pin_1*%
%TO.N,Battery O{slash}P*%
X147340000Y-134595000D03*
D15*
%TO.P,J5,2,Pin_2*%
%TO.N,GND*%
X149880000Y-134595000D03*
%TD*%
D12*
%TO.P,R2,1*%
%TO.N,3V3*%
X147574000Y-80391000D03*
D13*
%TO.P,R2,2*%
%TO.N,Net-(R2-Pad2)*%
X147574000Y-88011000D03*
%TD*%
D16*
%TO.P,J1,S1,SHIELD*%
%TO.N,GND*%
X143970000Y-126998000D03*
%TO.P,J1,S2,SHIELD*%
X143970000Y-135638000D03*
%TO.P,J1,S3,SHIELD*%
X140170000Y-126998000D03*
%TO.P,J1,S4,SHIELD*%
X140170000Y-135638000D03*
%TD*%
D12*
%TO.P,R4,1*%
%TO.N,Net-(J1-PadA5)*%
X143002000Y-124841000D03*
D13*
%TO.P,R4,2*%
%TO.N,GND*%
X143002000Y-117221000D03*
%TD*%
D11*
%TO.P,SW5,1,1*%
%TO.N,D1*%
X149160000Y-70800000D03*
X142660000Y-70800000D03*
%TO.P,SW5,2,2*%
%TO.N,3V3*%
X142660000Y-75300000D03*
X149160000Y-75300000D03*
%TD*%
D12*
%TO.P,R10,1*%
%TO.N,D6*%
X165735000Y-97663000D03*
D13*
%TO.P,R10,2*%
%TO.N,GND*%
X165735000Y-90043000D03*
%TD*%
D17*
%TO.P,U3,1,GND*%
%TO.N,GND*%
X151536000Y-118378000D03*
D18*
%TO.P,U3,2,VO*%
%TO.N,3V3*%
X157836000Y-116078000D03*
D17*
X151536000Y-116078000D03*
%TO.P,U3,3,VI*%
%TO.N,VCC*%
X151536000Y-113778000D03*
%TD*%
D19*
%TO.P,U2,1,STAT*%
%TO.N,Net-(D1-Pad1)*%
X170876000Y-117977500D03*
%TO.P,U2,2,VSS*%
%TO.N,GND*%
X169926000Y-117977500D03*
%TO.P,U2,3,VBAT*%
%TO.N,Battery O{slash}P*%
X168976000Y-117977500D03*
%TO.P,U2,4,VDD*%
%TO.N,Net-(J8-Pad2)*%
X168976000Y-115702500D03*
%TO.P,U2,5,PROG*%
%TO.N,Net-(R13-Pad1)*%
X170876000Y-115702500D03*
%TD*%
D20*
%TO.N,Net-(R1-Pad2)*%
X164592000Y-119634000D03*
X164338000Y-98081500D03*
%TO.N,Net-(C1-Pad1)*%
X138684000Y-114808000D03*
X137922000Y-124714000D03*
%TO.N,GND*%
X160709649Y-101019649D03*
X159512000Y-120142000D03*
X164532201Y-136084201D03*
X164338000Y-116586000D03*
X168910000Y-136144000D03*
X152908000Y-100330000D03*
X150659500Y-96012000D03*
X157367446Y-120762555D03*
X157988000Y-100076000D03*
X169926000Y-123190000D03*
X153035000Y-118364000D03*
%TO.N,Battery O{slash}P*%
X160020000Y-115171500D03*
%TO.N,VCC*%
X154487842Y-124743287D03*
X152146000Y-112014000D03*
%TO.N,3V3*%
X148082000Y-104902000D03*
X155194000Y-106680000D03*
X153731872Y-116998470D03*
X156746610Y-106680000D03*
X155321000Y-116967000D03*
X162306000Y-108331000D03*
%TO.N,Net-(D1-Pad1)*%
X169976500Y-115570000D03*
%TO.N,Net-(J1-PadA5)*%
X142494000Y-130556000D03*
X142494000Y-127762000D03*
%TO.N,Net-(J1-PadB5)*%
X140208000Y-130810000D03*
X141224000Y-129032000D03*
%TO.N,Net-(J4-Pad1)*%
X139336201Y-109110201D03*
X140081000Y-93980000D03*
X145161000Y-113792000D03*
%TO.N,Net-(J6-Pad4)*%
X164846000Y-131318000D03*
%TO.N,Net-(R2-Pad2)*%
X150996888Y-106730465D03*
X151384000Y-100711000D03*
%TO.N,GPIO0*%
X145034000Y-115062000D03*
X141431701Y-107014701D03*
%TO.N,Net-(R6-Pad1)*%
X145079473Y-109524746D03*
%TO.N,D6*%
X167513000Y-111760000D03*
X167513000Y-107061000D03*
X167707799Y-99381799D03*
%TO.N,D7*%
X163576000Y-101092000D03*
X163576000Y-88646000D03*
%TO.N,D1*%
X148971000Y-119253000D03*
%TO.N,D2*%
X169291000Y-71247000D03*
X171521011Y-72263000D03*
X168275000Y-95250000D03*
X160288446Y-123683555D03*
X160909000Y-108077000D03*
%TD*%
D21*
%TO.N,Net-(R13-Pad1)*%
X170876000Y-104328000D02*
X169672000Y-103124000D01*
X170876000Y-115702500D02*
X170876000Y-104328000D01*
%TO.N,Net-(R1-Pad2)*%
X163613489Y-118655489D02*
X164592000Y-119634000D01*
X163613489Y-107793407D02*
X163613489Y-118655489D01*
X164338000Y-107068896D02*
X163613489Y-107793407D01*
X164338000Y-98081500D02*
X164338000Y-107068896D01*
%TO.N,Net-(C1-Pad1)*%
X137922000Y-115570000D02*
X138684000Y-114808000D01*
X137922000Y-124714000D02*
X137922000Y-115570000D01*
%TO.N,GND*%
X169926000Y-122475621D02*
X169926000Y-123190000D01*
X153021000Y-118378000D02*
X153035000Y-118364000D01*
X164338000Y-107704614D02*
X164338000Y-116586000D01*
X152574621Y-99996621D02*
X152908000Y-100330000D01*
X169672000Y-85217000D02*
X165735000Y-89154000D01*
X139319000Y-117221000D02*
X143002000Y-117221000D01*
X160709649Y-101019649D02*
X159766000Y-100076000D01*
X150659500Y-96012000D02*
X152574621Y-97927121D01*
X145758511Y-119977511D02*
X143002000Y-117221000D01*
X165735000Y-89154000D02*
X165735000Y-90043000D01*
X140170000Y-126998000D02*
X143970000Y-126998000D01*
X151289521Y-136446521D02*
X151289521Y-136004521D01*
X161671000Y-90043000D02*
X165735000Y-90043000D01*
X168850201Y-136084201D02*
X168910000Y-136144000D01*
X158828479Y-136446521D02*
X160655000Y-134620000D01*
X169926000Y-117977500D02*
X169926000Y-122475621D01*
X151536000Y-118378000D02*
X149936489Y-119977511D01*
X165735000Y-106307614D02*
X164338000Y-107704614D01*
X151289521Y-136446521D02*
X158828479Y-136446521D01*
X158891445Y-120762555D02*
X159512000Y-120142000D01*
X149936489Y-119977511D02*
X145758511Y-119977511D01*
X151536000Y-118378000D02*
X153021000Y-118378000D01*
X164532201Y-136084201D02*
X168850201Y-136084201D01*
X157367446Y-120762555D02*
X158891445Y-120762555D01*
X151289521Y-136004521D02*
X149880000Y-134595000D01*
X152574621Y-97927121D02*
X152574621Y-99996621D01*
X165735000Y-100330000D02*
X165735000Y-106307614D01*
X159766000Y-100076000D02*
X157988000Y-100076000D01*
X140170000Y-135638000D02*
X143970000Y-135638000D01*
%TO.N,Battery O{slash}P*%
X160106277Y-124526000D02*
X168976000Y-124526000D01*
X147340000Y-137195000D02*
X148575000Y-138430000D01*
X160236511Y-115388011D02*
X160236511Y-122465489D01*
X169634511Y-135843897D02*
X169634511Y-136444103D01*
X149749511Y-139604511D02*
X148575000Y-138430000D01*
X160020000Y-115171500D02*
X160236511Y-115388011D01*
X166474103Y-139604511D02*
X149749511Y-139604511D01*
X159563935Y-123983658D02*
X160106277Y-124526000D01*
X168976000Y-117977500D02*
X168976000Y-124526000D01*
X168976000Y-135185386D02*
X169634511Y-135843897D01*
X159563935Y-123138065D02*
X159563935Y-123983658D01*
X160236511Y-122465489D02*
X159563935Y-123138065D01*
X147340000Y-134595000D02*
X147340000Y-137195000D01*
X168976000Y-124526000D02*
X168976000Y-135185386D01*
X169634511Y-136444103D02*
X166474103Y-139604511D01*
%TO.N,VCC*%
X152146000Y-112014000D02*
X152146000Y-113168000D01*
X152146000Y-113168000D02*
X151536000Y-113778000D01*
X154487842Y-124743287D02*
X154487842Y-116729842D01*
X154487842Y-116729842D02*
X151536000Y-113778000D01*
%TO.N,3V3*%
X156210000Y-116078000D02*
X157836000Y-116078000D01*
X157836000Y-116078000D02*
X157836000Y-107340000D01*
X157836000Y-107340000D02*
X157861000Y-107315000D01*
X156746610Y-106680000D02*
X157226000Y-106680000D01*
X154419024Y-107454976D02*
X155194000Y-106680000D01*
X151536000Y-116078000D02*
X152811402Y-116078000D01*
X150634976Y-107454976D02*
X154419024Y-107454976D01*
X157861000Y-107315000D02*
X157988000Y-107188000D01*
X148082000Y-104902000D02*
X150634976Y-107454976D01*
X157988000Y-107188000D02*
X162306000Y-107188000D01*
X149160000Y-75300000D02*
X160116000Y-75300000D01*
X155321000Y-116967000D02*
X156210000Y-116078000D01*
X152811402Y-116078000D02*
X153731872Y-116998470D01*
X157226000Y-106680000D02*
X157861000Y-107315000D01*
X162306000Y-107188000D02*
X162306000Y-108331000D01*
%TO.N,Net-(D1-Pad1)*%
X170876000Y-117977500D02*
X170876000Y-117036072D01*
X169672000Y-115832072D02*
X169714428Y-115832072D01*
X170876000Y-117036072D02*
X169672000Y-115832072D01*
X169714428Y-115832072D02*
X169976500Y-115570000D01*
%TO.N,Net-(J1-PadA5)*%
X142494000Y-130556000D02*
X142494000Y-127762000D01*
%TO.N,Net-(J1-PadB5)*%
X140208000Y-130048000D02*
X141224000Y-129032000D01*
X140208000Y-130810000D02*
X140208000Y-130048000D01*
%TO.N,TX*%
X138144489Y-102139511D02*
X143065978Y-107061000D01*
X143065978Y-107061000D02*
X143510000Y-107061000D01*
X139573000Y-79883000D02*
X138144489Y-81311511D01*
X138144489Y-81311511D02*
X138144489Y-102139511D01*
%TO.N,Net-(J4-Pad1)*%
X140632501Y-109110201D02*
X145161000Y-113638700D01*
X139336201Y-109110201D02*
X140632501Y-109110201D01*
X141605000Y-92456000D02*
X143637000Y-92456000D01*
X145161000Y-113638700D02*
X145161000Y-113792000D01*
X140081000Y-93980000D02*
X141605000Y-92456000D01*
%TO.N,Net-(J6-Pad4)*%
X163195000Y-132969000D02*
X163195000Y-134620000D01*
X164846000Y-131318000D02*
X163195000Y-132969000D01*
%TO.N,Net-(J8-Pad2)*%
X168976000Y-115702500D02*
X167888500Y-115702500D01*
X167888500Y-115702500D02*
X165735000Y-117856000D01*
%TO.N,Net-(R2-Pad2)*%
X151384000Y-106343353D02*
X151384000Y-100711000D01*
X150996888Y-106730465D02*
X151384000Y-106343353D01*
%TO.N,GPIO0*%
X141431701Y-107014701D02*
X141431701Y-107331723D01*
X145885511Y-111785533D02*
X145885511Y-114210489D01*
X141431701Y-107331723D02*
X145885511Y-111785533D01*
X145885511Y-114210489D02*
X145034000Y-115062000D01*
%TO.N,Net-(R6-Pad1)*%
X145079473Y-109524746D02*
X145079473Y-104312473D01*
X145079473Y-104312473D02*
X143637000Y-102870000D01*
%TO.N,D6*%
X170796511Y-90061489D02*
X165735000Y-95123000D01*
X167513000Y-111760000D02*
X167513000Y-107061000D01*
X153412000Y-41148000D02*
X164237143Y-41148000D01*
X167707799Y-99381799D02*
X167453799Y-99381799D01*
X170796511Y-47707368D02*
X170796511Y-90061489D01*
X164237143Y-41148000D02*
X170796511Y-47707368D01*
X167453799Y-99381799D02*
X165735000Y-97663000D01*
X165735000Y-95123000D02*
X165735000Y-97663000D01*
X149160000Y-45400000D02*
X153412000Y-41148000D01*
%TO.N,D5*%
X149160000Y-58100000D02*
X146449489Y-60810511D01*
X146449489Y-60810511D02*
X146449489Y-97300489D01*
X146449489Y-97300489D02*
X147701000Y-98552000D01*
%TO.N,D7*%
X160116000Y-58100000D02*
X162795511Y-60779511D01*
X163576000Y-101092000D02*
X161671000Y-99187000D01*
X162795511Y-87865511D02*
X163576000Y-88646000D01*
X161671000Y-99187000D02*
X161671000Y-97663000D01*
X162795511Y-60779511D02*
X162795511Y-87865511D01*
%TO.N,D1*%
X148971000Y-119253000D02*
X148971000Y-113943978D01*
X156022110Y-93024890D02*
X161671000Y-87376000D01*
X156022110Y-106892868D02*
X156022110Y-93024890D01*
X148971000Y-113943978D02*
X156022110Y-106892868D01*
%TO.N,D2*%
X168275000Y-94234000D02*
X169672000Y-92837000D01*
X171521011Y-90987989D02*
X171521011Y-72263000D01*
X160909000Y-123063001D02*
X160909000Y-108077000D01*
X169672000Y-92837000D02*
X171521011Y-90987989D01*
X168275000Y-95250000D02*
X168275000Y-94234000D01*
X169291000Y-71247000D02*
X168844000Y-70800000D01*
X160288446Y-123683555D02*
X160909000Y-123063001D01*
X168844000Y-70800000D02*
X166616000Y-70800000D01*
%TD*%
M02*
