%TF.GenerationSoftware,KiCad,Pcbnew,(6.0.5)*%
%TF.CreationDate,2022-08-02T11:06:52+05:30*%
%TF.ProjectId,ESP12 Smart Remote,45535031-3220-4536-9d61-72742052656d,rev?*%
%TF.SameCoordinates,Original*%
%TF.FileFunction,Soldermask,Bot*%
%TF.FilePolarity,Negative*%
%FSLAX46Y46*%
G04 Gerber Fmt 4.6, Leading zero omitted, Abs format (unit mm)*
G04 Created by KiCad (PCBNEW (6.0.5)) date 2022-08-02 11:06:52*
%MOMM*%
%LPD*%
G01*
G04 APERTURE LIST*
G04 Aperture macros list*
%AMRoundRect*
0 Rectangle with rounded corners*
0 $1 Rounding radius*
0 $2 $3 $4 $5 $6 $7 $8 $9 X,Y pos of 4 corners*
0 Add a 4 corners polygon primitive as box body*
4,1,4,$2,$3,$4,$5,$6,$7,$8,$9,$2,$3,0*
0 Add four circle primitives for the rounded corners*
1,1,$1+$1,$2,$3*
1,1,$1+$1,$4,$5*
1,1,$1+$1,$6,$7*
1,1,$1+$1,$8,$9*
0 Add four rect primitives between the rounded corners*
20,1,$1+$1,$2,$3,$4,$5,0*
20,1,$1+$1,$4,$5,$6,$7,0*
20,1,$1+$1,$6,$7,$8,$9,0*
20,1,$1+$1,$8,$9,$2,$3,0*%
G04 Aperture macros list end*
%ADD10C,0.010000*%
%ADD11C,2.000000*%
%ADD12C,1.600000*%
%ADD13O,1.600000X1.600000*%
%ADD14C,0.550000*%
%ADD15R,1.700000X1.700000*%
%ADD16O,1.700000X1.700000*%
%ADD17R,2.000000X1.500000*%
%ADD18R,2.000000X3.800000*%
%ADD19RoundRect,0.150000X0.150000X-0.512500X0.150000X0.512500X-0.150000X0.512500X-0.150000X-0.512500X0*%
G04 APERTURE END LIST*
%TO.C,J1*%
G36*
X144304000Y-126349000D02*
G01*
X144338000Y-126352000D01*
X144372000Y-126356000D01*
X144405000Y-126362000D01*
X144438000Y-126370000D01*
X144471000Y-126380000D01*
X144503000Y-126391000D01*
X144534000Y-126404000D01*
X144565000Y-126419000D01*
X144595000Y-126435000D01*
X144624000Y-126453000D01*
X144652000Y-126472000D01*
X144679000Y-126493000D01*
X144705000Y-126515000D01*
X144730000Y-126538000D01*
X144753000Y-126563000D01*
X144775000Y-126589000D01*
X144796000Y-126616000D01*
X144815000Y-126644000D01*
X144833000Y-126673000D01*
X144849000Y-126703000D01*
X144864000Y-126734000D01*
X144877000Y-126765000D01*
X144888000Y-126797000D01*
X144898000Y-126830000D01*
X144906000Y-126863000D01*
X144912000Y-126896000D01*
X144916000Y-126930000D01*
X144919000Y-126964000D01*
X144920000Y-126998000D01*
X144919000Y-127032000D01*
X144916000Y-127066000D01*
X144912000Y-127100000D01*
X144906000Y-127133000D01*
X144898000Y-127166000D01*
X144888000Y-127199000D01*
X144877000Y-127231000D01*
X144864000Y-127262000D01*
X144849000Y-127293000D01*
X144833000Y-127323000D01*
X144815000Y-127352000D01*
X144796000Y-127380000D01*
X144775000Y-127407000D01*
X144753000Y-127433000D01*
X144730000Y-127458000D01*
X144705000Y-127481000D01*
X144679000Y-127503000D01*
X144652000Y-127524000D01*
X144624000Y-127543000D01*
X144595000Y-127561000D01*
X144565000Y-127577000D01*
X144534000Y-127592000D01*
X144503000Y-127605000D01*
X144471000Y-127616000D01*
X144438000Y-127626000D01*
X144405000Y-127634000D01*
X144372000Y-127640000D01*
X144338000Y-127644000D01*
X144304000Y-127647000D01*
X144270000Y-127648000D01*
X143670000Y-127648000D01*
X143636000Y-127647000D01*
X143602000Y-127644000D01*
X143568000Y-127640000D01*
X143535000Y-127634000D01*
X143502000Y-127626000D01*
X143469000Y-127616000D01*
X143437000Y-127605000D01*
X143406000Y-127592000D01*
X143375000Y-127577000D01*
X143345000Y-127561000D01*
X143316000Y-127543000D01*
X143288000Y-127524000D01*
X143261000Y-127503000D01*
X143235000Y-127481000D01*
X143210000Y-127458000D01*
X143187000Y-127433000D01*
X143165000Y-127407000D01*
X143144000Y-127380000D01*
X143125000Y-127352000D01*
X143107000Y-127323000D01*
X143091000Y-127293000D01*
X143076000Y-127262000D01*
X143063000Y-127231000D01*
X143052000Y-127199000D01*
X143042000Y-127166000D01*
X143034000Y-127133000D01*
X143028000Y-127100000D01*
X143024000Y-127066000D01*
X143021000Y-127032000D01*
X143020000Y-126998000D01*
X143021000Y-126964000D01*
X143024000Y-126930000D01*
X143028000Y-126896000D01*
X143034000Y-126863000D01*
X143042000Y-126830000D01*
X143052000Y-126797000D01*
X143063000Y-126765000D01*
X143076000Y-126734000D01*
X143091000Y-126703000D01*
X143107000Y-126673000D01*
X143125000Y-126644000D01*
X143144000Y-126616000D01*
X143165000Y-126589000D01*
X143187000Y-126563000D01*
X143210000Y-126538000D01*
X143235000Y-126515000D01*
X143261000Y-126493000D01*
X143288000Y-126472000D01*
X143316000Y-126453000D01*
X143345000Y-126435000D01*
X143375000Y-126419000D01*
X143406000Y-126404000D01*
X143437000Y-126391000D01*
X143469000Y-126380000D01*
X143502000Y-126370000D01*
X143535000Y-126362000D01*
X143568000Y-126356000D01*
X143602000Y-126352000D01*
X143636000Y-126349000D01*
X143670000Y-126348000D01*
X144270000Y-126348000D01*
X144304000Y-126349000D01*
G37*
D10*
X144304000Y-126349000D02*
X144338000Y-126352000D01*
X144372000Y-126356000D01*
X144405000Y-126362000D01*
X144438000Y-126370000D01*
X144471000Y-126380000D01*
X144503000Y-126391000D01*
X144534000Y-126404000D01*
X144565000Y-126419000D01*
X144595000Y-126435000D01*
X144624000Y-126453000D01*
X144652000Y-126472000D01*
X144679000Y-126493000D01*
X144705000Y-126515000D01*
X144730000Y-126538000D01*
X144753000Y-126563000D01*
X144775000Y-126589000D01*
X144796000Y-126616000D01*
X144815000Y-126644000D01*
X144833000Y-126673000D01*
X144849000Y-126703000D01*
X144864000Y-126734000D01*
X144877000Y-126765000D01*
X144888000Y-126797000D01*
X144898000Y-126830000D01*
X144906000Y-126863000D01*
X144912000Y-126896000D01*
X144916000Y-126930000D01*
X144919000Y-126964000D01*
X144920000Y-126998000D01*
X144919000Y-127032000D01*
X144916000Y-127066000D01*
X144912000Y-127100000D01*
X144906000Y-127133000D01*
X144898000Y-127166000D01*
X144888000Y-127199000D01*
X144877000Y-127231000D01*
X144864000Y-127262000D01*
X144849000Y-127293000D01*
X144833000Y-127323000D01*
X144815000Y-127352000D01*
X144796000Y-127380000D01*
X144775000Y-127407000D01*
X144753000Y-127433000D01*
X144730000Y-127458000D01*
X144705000Y-127481000D01*
X144679000Y-127503000D01*
X144652000Y-127524000D01*
X144624000Y-127543000D01*
X144595000Y-127561000D01*
X144565000Y-127577000D01*
X144534000Y-127592000D01*
X144503000Y-127605000D01*
X144471000Y-127616000D01*
X144438000Y-127626000D01*
X144405000Y-127634000D01*
X144372000Y-127640000D01*
X144338000Y-127644000D01*
X144304000Y-127647000D01*
X144270000Y-127648000D01*
X143670000Y-127648000D01*
X143636000Y-127647000D01*
X143602000Y-127644000D01*
X143568000Y-127640000D01*
X143535000Y-127634000D01*
X143502000Y-127626000D01*
X143469000Y-127616000D01*
X143437000Y-127605000D01*
X143406000Y-127592000D01*
X143375000Y-127577000D01*
X143345000Y-127561000D01*
X143316000Y-127543000D01*
X143288000Y-127524000D01*
X143261000Y-127503000D01*
X143235000Y-127481000D01*
X143210000Y-127458000D01*
X143187000Y-127433000D01*
X143165000Y-127407000D01*
X143144000Y-127380000D01*
X143125000Y-127352000D01*
X143107000Y-127323000D01*
X143091000Y-127293000D01*
X143076000Y-127262000D01*
X143063000Y-127231000D01*
X143052000Y-127199000D01*
X143042000Y-127166000D01*
X143034000Y-127133000D01*
X143028000Y-127100000D01*
X143024000Y-127066000D01*
X143021000Y-127032000D01*
X143020000Y-126998000D01*
X143021000Y-126964000D01*
X143024000Y-126930000D01*
X143028000Y-126896000D01*
X143034000Y-126863000D01*
X143042000Y-126830000D01*
X143052000Y-126797000D01*
X143063000Y-126765000D01*
X143076000Y-126734000D01*
X143091000Y-126703000D01*
X143107000Y-126673000D01*
X143125000Y-126644000D01*
X143144000Y-126616000D01*
X143165000Y-126589000D01*
X143187000Y-126563000D01*
X143210000Y-126538000D01*
X143235000Y-126515000D01*
X143261000Y-126493000D01*
X143288000Y-126472000D01*
X143316000Y-126453000D01*
X143345000Y-126435000D01*
X143375000Y-126419000D01*
X143406000Y-126404000D01*
X143437000Y-126391000D01*
X143469000Y-126380000D01*
X143502000Y-126370000D01*
X143535000Y-126362000D01*
X143568000Y-126356000D01*
X143602000Y-126352000D01*
X143636000Y-126349000D01*
X143670000Y-126348000D01*
X144270000Y-126348000D01*
X144304000Y-126349000D01*
G36*
X140504000Y-134989000D02*
G01*
X140538000Y-134992000D01*
X140572000Y-134996000D01*
X140605000Y-135002000D01*
X140638000Y-135010000D01*
X140671000Y-135020000D01*
X140703000Y-135031000D01*
X140734000Y-135044000D01*
X140765000Y-135059000D01*
X140795000Y-135075000D01*
X140824000Y-135093000D01*
X140852000Y-135112000D01*
X140879000Y-135133000D01*
X140905000Y-135155000D01*
X140930000Y-135178000D01*
X140953000Y-135203000D01*
X140975000Y-135229000D01*
X140996000Y-135256000D01*
X141015000Y-135284000D01*
X141033000Y-135313000D01*
X141049000Y-135343000D01*
X141064000Y-135374000D01*
X141077000Y-135405000D01*
X141088000Y-135437000D01*
X141098000Y-135470000D01*
X141106000Y-135503000D01*
X141112000Y-135536000D01*
X141116000Y-135570000D01*
X141119000Y-135604000D01*
X141120000Y-135638000D01*
X141119000Y-135672000D01*
X141116000Y-135706000D01*
X141112000Y-135740000D01*
X141106000Y-135773000D01*
X141098000Y-135806000D01*
X141088000Y-135839000D01*
X141077000Y-135871000D01*
X141064000Y-135902000D01*
X141049000Y-135933000D01*
X141033000Y-135963000D01*
X141015000Y-135992000D01*
X140996000Y-136020000D01*
X140975000Y-136047000D01*
X140953000Y-136073000D01*
X140930000Y-136098000D01*
X140905000Y-136121000D01*
X140879000Y-136143000D01*
X140852000Y-136164000D01*
X140824000Y-136183000D01*
X140795000Y-136201000D01*
X140765000Y-136217000D01*
X140734000Y-136232000D01*
X140703000Y-136245000D01*
X140671000Y-136256000D01*
X140638000Y-136266000D01*
X140605000Y-136274000D01*
X140572000Y-136280000D01*
X140538000Y-136284000D01*
X140504000Y-136287000D01*
X140470000Y-136288000D01*
X139870000Y-136288000D01*
X139836000Y-136287000D01*
X139802000Y-136284000D01*
X139768000Y-136280000D01*
X139735000Y-136274000D01*
X139702000Y-136266000D01*
X139669000Y-136256000D01*
X139637000Y-136245000D01*
X139606000Y-136232000D01*
X139575000Y-136217000D01*
X139545000Y-136201000D01*
X139516000Y-136183000D01*
X139488000Y-136164000D01*
X139461000Y-136143000D01*
X139435000Y-136121000D01*
X139410000Y-136098000D01*
X139387000Y-136073000D01*
X139365000Y-136047000D01*
X139344000Y-136020000D01*
X139325000Y-135992000D01*
X139307000Y-135963000D01*
X139291000Y-135933000D01*
X139276000Y-135902000D01*
X139263000Y-135871000D01*
X139252000Y-135839000D01*
X139242000Y-135806000D01*
X139234000Y-135773000D01*
X139228000Y-135740000D01*
X139224000Y-135706000D01*
X139221000Y-135672000D01*
X139220000Y-135638000D01*
X139221000Y-135604000D01*
X139224000Y-135570000D01*
X139228000Y-135536000D01*
X139234000Y-135503000D01*
X139242000Y-135470000D01*
X139252000Y-135437000D01*
X139263000Y-135405000D01*
X139276000Y-135374000D01*
X139291000Y-135343000D01*
X139307000Y-135313000D01*
X139325000Y-135284000D01*
X139344000Y-135256000D01*
X139365000Y-135229000D01*
X139387000Y-135203000D01*
X139410000Y-135178000D01*
X139435000Y-135155000D01*
X139461000Y-135133000D01*
X139488000Y-135112000D01*
X139516000Y-135093000D01*
X139545000Y-135075000D01*
X139575000Y-135059000D01*
X139606000Y-135044000D01*
X139637000Y-135031000D01*
X139669000Y-135020000D01*
X139702000Y-135010000D01*
X139735000Y-135002000D01*
X139768000Y-134996000D01*
X139802000Y-134992000D01*
X139836000Y-134989000D01*
X139870000Y-134988000D01*
X140470000Y-134988000D01*
X140504000Y-134989000D01*
G37*
X140504000Y-134989000D02*
X140538000Y-134992000D01*
X140572000Y-134996000D01*
X140605000Y-135002000D01*
X140638000Y-135010000D01*
X140671000Y-135020000D01*
X140703000Y-135031000D01*
X140734000Y-135044000D01*
X140765000Y-135059000D01*
X140795000Y-135075000D01*
X140824000Y-135093000D01*
X140852000Y-135112000D01*
X140879000Y-135133000D01*
X140905000Y-135155000D01*
X140930000Y-135178000D01*
X140953000Y-135203000D01*
X140975000Y-135229000D01*
X140996000Y-135256000D01*
X141015000Y-135284000D01*
X141033000Y-135313000D01*
X141049000Y-135343000D01*
X141064000Y-135374000D01*
X141077000Y-135405000D01*
X141088000Y-135437000D01*
X141098000Y-135470000D01*
X141106000Y-135503000D01*
X141112000Y-135536000D01*
X141116000Y-135570000D01*
X141119000Y-135604000D01*
X141120000Y-135638000D01*
X141119000Y-135672000D01*
X141116000Y-135706000D01*
X141112000Y-135740000D01*
X141106000Y-135773000D01*
X141098000Y-135806000D01*
X141088000Y-135839000D01*
X141077000Y-135871000D01*
X141064000Y-135902000D01*
X141049000Y-135933000D01*
X141033000Y-135963000D01*
X141015000Y-135992000D01*
X140996000Y-136020000D01*
X140975000Y-136047000D01*
X140953000Y-136073000D01*
X140930000Y-136098000D01*
X140905000Y-136121000D01*
X140879000Y-136143000D01*
X140852000Y-136164000D01*
X140824000Y-136183000D01*
X140795000Y-136201000D01*
X140765000Y-136217000D01*
X140734000Y-136232000D01*
X140703000Y-136245000D01*
X140671000Y-136256000D01*
X140638000Y-136266000D01*
X140605000Y-136274000D01*
X140572000Y-136280000D01*
X140538000Y-136284000D01*
X140504000Y-136287000D01*
X140470000Y-136288000D01*
X139870000Y-136288000D01*
X139836000Y-136287000D01*
X139802000Y-136284000D01*
X139768000Y-136280000D01*
X139735000Y-136274000D01*
X139702000Y-136266000D01*
X139669000Y-136256000D01*
X139637000Y-136245000D01*
X139606000Y-136232000D01*
X139575000Y-136217000D01*
X139545000Y-136201000D01*
X139516000Y-136183000D01*
X139488000Y-136164000D01*
X139461000Y-136143000D01*
X139435000Y-136121000D01*
X139410000Y-136098000D01*
X139387000Y-136073000D01*
X139365000Y-136047000D01*
X139344000Y-136020000D01*
X139325000Y-135992000D01*
X139307000Y-135963000D01*
X139291000Y-135933000D01*
X139276000Y-135902000D01*
X139263000Y-135871000D01*
X139252000Y-135839000D01*
X139242000Y-135806000D01*
X139234000Y-135773000D01*
X139228000Y-135740000D01*
X139224000Y-135706000D01*
X139221000Y-135672000D01*
X139220000Y-135638000D01*
X139221000Y-135604000D01*
X139224000Y-135570000D01*
X139228000Y-135536000D01*
X139234000Y-135503000D01*
X139242000Y-135470000D01*
X139252000Y-135437000D01*
X139263000Y-135405000D01*
X139276000Y-135374000D01*
X139291000Y-135343000D01*
X139307000Y-135313000D01*
X139325000Y-135284000D01*
X139344000Y-135256000D01*
X139365000Y-135229000D01*
X139387000Y-135203000D01*
X139410000Y-135178000D01*
X139435000Y-135155000D01*
X139461000Y-135133000D01*
X139488000Y-135112000D01*
X139516000Y-135093000D01*
X139545000Y-135075000D01*
X139575000Y-135059000D01*
X139606000Y-135044000D01*
X139637000Y-135031000D01*
X139669000Y-135020000D01*
X139702000Y-135010000D01*
X139735000Y-135002000D01*
X139768000Y-134996000D01*
X139802000Y-134992000D01*
X139836000Y-134989000D01*
X139870000Y-134988000D01*
X140470000Y-134988000D01*
X140504000Y-134989000D01*
G36*
X140504000Y-126349000D02*
G01*
X140538000Y-126352000D01*
X140572000Y-126356000D01*
X140605000Y-126362000D01*
X140638000Y-126370000D01*
X140671000Y-126380000D01*
X140703000Y-126391000D01*
X140734000Y-126404000D01*
X140765000Y-126419000D01*
X140795000Y-126435000D01*
X140824000Y-126453000D01*
X140852000Y-126472000D01*
X140879000Y-126493000D01*
X140905000Y-126515000D01*
X140930000Y-126538000D01*
X140953000Y-126563000D01*
X140975000Y-126589000D01*
X140996000Y-126616000D01*
X141015000Y-126644000D01*
X141033000Y-126673000D01*
X141049000Y-126703000D01*
X141064000Y-126734000D01*
X141077000Y-126765000D01*
X141088000Y-126797000D01*
X141098000Y-126830000D01*
X141106000Y-126863000D01*
X141112000Y-126896000D01*
X141116000Y-126930000D01*
X141119000Y-126964000D01*
X141120000Y-126998000D01*
X141119000Y-127032000D01*
X141116000Y-127066000D01*
X141112000Y-127100000D01*
X141106000Y-127133000D01*
X141098000Y-127166000D01*
X141088000Y-127199000D01*
X141077000Y-127231000D01*
X141064000Y-127262000D01*
X141049000Y-127293000D01*
X141033000Y-127323000D01*
X141015000Y-127352000D01*
X140996000Y-127380000D01*
X140975000Y-127407000D01*
X140953000Y-127433000D01*
X140930000Y-127458000D01*
X140905000Y-127481000D01*
X140879000Y-127503000D01*
X140852000Y-127524000D01*
X140824000Y-127543000D01*
X140795000Y-127561000D01*
X140765000Y-127577000D01*
X140734000Y-127592000D01*
X140703000Y-127605000D01*
X140671000Y-127616000D01*
X140638000Y-127626000D01*
X140605000Y-127634000D01*
X140572000Y-127640000D01*
X140538000Y-127644000D01*
X140504000Y-127647000D01*
X140470000Y-127648000D01*
X139870000Y-127648000D01*
X139836000Y-127647000D01*
X139802000Y-127644000D01*
X139768000Y-127640000D01*
X139735000Y-127634000D01*
X139702000Y-127626000D01*
X139669000Y-127616000D01*
X139637000Y-127605000D01*
X139606000Y-127592000D01*
X139575000Y-127577000D01*
X139545000Y-127561000D01*
X139516000Y-127543000D01*
X139488000Y-127524000D01*
X139461000Y-127503000D01*
X139435000Y-127481000D01*
X139410000Y-127458000D01*
X139387000Y-127433000D01*
X139365000Y-127407000D01*
X139344000Y-127380000D01*
X139325000Y-127352000D01*
X139307000Y-127323000D01*
X139291000Y-127293000D01*
X139276000Y-127262000D01*
X139263000Y-127231000D01*
X139252000Y-127199000D01*
X139242000Y-127166000D01*
X139234000Y-127133000D01*
X139228000Y-127100000D01*
X139224000Y-127066000D01*
X139221000Y-127032000D01*
X139220000Y-126998000D01*
X139221000Y-126964000D01*
X139224000Y-126930000D01*
X139228000Y-126896000D01*
X139234000Y-126863000D01*
X139242000Y-126830000D01*
X139252000Y-126797000D01*
X139263000Y-126765000D01*
X139276000Y-126734000D01*
X139291000Y-126703000D01*
X139307000Y-126673000D01*
X139325000Y-126644000D01*
X139344000Y-126616000D01*
X139365000Y-126589000D01*
X139387000Y-126563000D01*
X139410000Y-126538000D01*
X139435000Y-126515000D01*
X139461000Y-126493000D01*
X139488000Y-126472000D01*
X139516000Y-126453000D01*
X139545000Y-126435000D01*
X139575000Y-126419000D01*
X139606000Y-126404000D01*
X139637000Y-126391000D01*
X139669000Y-126380000D01*
X139702000Y-126370000D01*
X139735000Y-126362000D01*
X139768000Y-126356000D01*
X139802000Y-126352000D01*
X139836000Y-126349000D01*
X139870000Y-126348000D01*
X140470000Y-126348000D01*
X140504000Y-126349000D01*
G37*
X140504000Y-126349000D02*
X140538000Y-126352000D01*
X140572000Y-126356000D01*
X140605000Y-126362000D01*
X140638000Y-126370000D01*
X140671000Y-126380000D01*
X140703000Y-126391000D01*
X140734000Y-126404000D01*
X140765000Y-126419000D01*
X140795000Y-126435000D01*
X140824000Y-126453000D01*
X140852000Y-126472000D01*
X140879000Y-126493000D01*
X140905000Y-126515000D01*
X140930000Y-126538000D01*
X140953000Y-126563000D01*
X140975000Y-126589000D01*
X140996000Y-126616000D01*
X141015000Y-126644000D01*
X141033000Y-126673000D01*
X141049000Y-126703000D01*
X141064000Y-126734000D01*
X141077000Y-126765000D01*
X141088000Y-126797000D01*
X141098000Y-126830000D01*
X141106000Y-126863000D01*
X141112000Y-126896000D01*
X141116000Y-126930000D01*
X141119000Y-126964000D01*
X141120000Y-126998000D01*
X141119000Y-127032000D01*
X141116000Y-127066000D01*
X141112000Y-127100000D01*
X141106000Y-127133000D01*
X141098000Y-127166000D01*
X141088000Y-127199000D01*
X141077000Y-127231000D01*
X141064000Y-127262000D01*
X141049000Y-127293000D01*
X141033000Y-127323000D01*
X141015000Y-127352000D01*
X140996000Y-127380000D01*
X140975000Y-127407000D01*
X140953000Y-127433000D01*
X140930000Y-127458000D01*
X140905000Y-127481000D01*
X140879000Y-127503000D01*
X140852000Y-127524000D01*
X140824000Y-127543000D01*
X140795000Y-127561000D01*
X140765000Y-127577000D01*
X140734000Y-127592000D01*
X140703000Y-127605000D01*
X140671000Y-127616000D01*
X140638000Y-127626000D01*
X140605000Y-127634000D01*
X140572000Y-127640000D01*
X140538000Y-127644000D01*
X140504000Y-127647000D01*
X140470000Y-127648000D01*
X139870000Y-127648000D01*
X139836000Y-127647000D01*
X139802000Y-127644000D01*
X139768000Y-127640000D01*
X139735000Y-127634000D01*
X139702000Y-127626000D01*
X139669000Y-127616000D01*
X139637000Y-127605000D01*
X139606000Y-127592000D01*
X139575000Y-127577000D01*
X139545000Y-127561000D01*
X139516000Y-127543000D01*
X139488000Y-127524000D01*
X139461000Y-127503000D01*
X139435000Y-127481000D01*
X139410000Y-127458000D01*
X139387000Y-127433000D01*
X139365000Y-127407000D01*
X139344000Y-127380000D01*
X139325000Y-127352000D01*
X139307000Y-127323000D01*
X139291000Y-127293000D01*
X139276000Y-127262000D01*
X139263000Y-127231000D01*
X139252000Y-127199000D01*
X139242000Y-127166000D01*
X139234000Y-127133000D01*
X139228000Y-127100000D01*
X139224000Y-127066000D01*
X139221000Y-127032000D01*
X139220000Y-126998000D01*
X139221000Y-126964000D01*
X139224000Y-126930000D01*
X139228000Y-126896000D01*
X139234000Y-126863000D01*
X139242000Y-126830000D01*
X139252000Y-126797000D01*
X139263000Y-126765000D01*
X139276000Y-126734000D01*
X139291000Y-126703000D01*
X139307000Y-126673000D01*
X139325000Y-126644000D01*
X139344000Y-126616000D01*
X139365000Y-126589000D01*
X139387000Y-126563000D01*
X139410000Y-126538000D01*
X139435000Y-126515000D01*
X139461000Y-126493000D01*
X139488000Y-126472000D01*
X139516000Y-126453000D01*
X139545000Y-126435000D01*
X139575000Y-126419000D01*
X139606000Y-126404000D01*
X139637000Y-126391000D01*
X139669000Y-126380000D01*
X139702000Y-126370000D01*
X139735000Y-126362000D01*
X139768000Y-126356000D01*
X139802000Y-126352000D01*
X139836000Y-126349000D01*
X139870000Y-126348000D01*
X140470000Y-126348000D01*
X140504000Y-126349000D01*
G36*
X144304000Y-134989000D02*
G01*
X144338000Y-134992000D01*
X144372000Y-134996000D01*
X144405000Y-135002000D01*
X144438000Y-135010000D01*
X144471000Y-135020000D01*
X144503000Y-135031000D01*
X144534000Y-135044000D01*
X144565000Y-135059000D01*
X144595000Y-135075000D01*
X144624000Y-135093000D01*
X144652000Y-135112000D01*
X144679000Y-135133000D01*
X144705000Y-135155000D01*
X144730000Y-135178000D01*
X144753000Y-135203000D01*
X144775000Y-135229000D01*
X144796000Y-135256000D01*
X144815000Y-135284000D01*
X144833000Y-135313000D01*
X144849000Y-135343000D01*
X144864000Y-135374000D01*
X144877000Y-135405000D01*
X144888000Y-135437000D01*
X144898000Y-135470000D01*
X144906000Y-135503000D01*
X144912000Y-135536000D01*
X144916000Y-135570000D01*
X144919000Y-135604000D01*
X144920000Y-135638000D01*
X144919000Y-135672000D01*
X144916000Y-135706000D01*
X144912000Y-135740000D01*
X144906000Y-135773000D01*
X144898000Y-135806000D01*
X144888000Y-135839000D01*
X144877000Y-135871000D01*
X144864000Y-135902000D01*
X144849000Y-135933000D01*
X144833000Y-135963000D01*
X144815000Y-135992000D01*
X144796000Y-136020000D01*
X144775000Y-136047000D01*
X144753000Y-136073000D01*
X144730000Y-136098000D01*
X144705000Y-136121000D01*
X144679000Y-136143000D01*
X144652000Y-136164000D01*
X144624000Y-136183000D01*
X144595000Y-136201000D01*
X144565000Y-136217000D01*
X144534000Y-136232000D01*
X144503000Y-136245000D01*
X144471000Y-136256000D01*
X144438000Y-136266000D01*
X144405000Y-136274000D01*
X144372000Y-136280000D01*
X144338000Y-136284000D01*
X144304000Y-136287000D01*
X144270000Y-136288000D01*
X143670000Y-136288000D01*
X143636000Y-136287000D01*
X143602000Y-136284000D01*
X143568000Y-136280000D01*
X143535000Y-136274000D01*
X143502000Y-136266000D01*
X143469000Y-136256000D01*
X143437000Y-136245000D01*
X143406000Y-136232000D01*
X143375000Y-136217000D01*
X143345000Y-136201000D01*
X143316000Y-136183000D01*
X143288000Y-136164000D01*
X143261000Y-136143000D01*
X143235000Y-136121000D01*
X143210000Y-136098000D01*
X143187000Y-136073000D01*
X143165000Y-136047000D01*
X143144000Y-136020000D01*
X143125000Y-135992000D01*
X143107000Y-135963000D01*
X143091000Y-135933000D01*
X143076000Y-135902000D01*
X143063000Y-135871000D01*
X143052000Y-135839000D01*
X143042000Y-135806000D01*
X143034000Y-135773000D01*
X143028000Y-135740000D01*
X143024000Y-135706000D01*
X143021000Y-135672000D01*
X143020000Y-135638000D01*
X143021000Y-135604000D01*
X143024000Y-135570000D01*
X143028000Y-135536000D01*
X143034000Y-135503000D01*
X143042000Y-135470000D01*
X143052000Y-135437000D01*
X143063000Y-135405000D01*
X143076000Y-135374000D01*
X143091000Y-135343000D01*
X143107000Y-135313000D01*
X143125000Y-135284000D01*
X143144000Y-135256000D01*
X143165000Y-135229000D01*
X143187000Y-135203000D01*
X143210000Y-135178000D01*
X143235000Y-135155000D01*
X143261000Y-135133000D01*
X143288000Y-135112000D01*
X143316000Y-135093000D01*
X143345000Y-135075000D01*
X143375000Y-135059000D01*
X143406000Y-135044000D01*
X143437000Y-135031000D01*
X143469000Y-135020000D01*
X143502000Y-135010000D01*
X143535000Y-135002000D01*
X143568000Y-134996000D01*
X143602000Y-134992000D01*
X143636000Y-134989000D01*
X143670000Y-134988000D01*
X144270000Y-134988000D01*
X144304000Y-134989000D01*
G37*
X144304000Y-134989000D02*
X144338000Y-134992000D01*
X144372000Y-134996000D01*
X144405000Y-135002000D01*
X144438000Y-135010000D01*
X144471000Y-135020000D01*
X144503000Y-135031000D01*
X144534000Y-135044000D01*
X144565000Y-135059000D01*
X144595000Y-135075000D01*
X144624000Y-135093000D01*
X144652000Y-135112000D01*
X144679000Y-135133000D01*
X144705000Y-135155000D01*
X144730000Y-135178000D01*
X144753000Y-135203000D01*
X144775000Y-135229000D01*
X144796000Y-135256000D01*
X144815000Y-135284000D01*
X144833000Y-135313000D01*
X144849000Y-135343000D01*
X144864000Y-135374000D01*
X144877000Y-135405000D01*
X144888000Y-135437000D01*
X144898000Y-135470000D01*
X144906000Y-135503000D01*
X144912000Y-135536000D01*
X144916000Y-135570000D01*
X144919000Y-135604000D01*
X144920000Y-135638000D01*
X144919000Y-135672000D01*
X144916000Y-135706000D01*
X144912000Y-135740000D01*
X144906000Y-135773000D01*
X144898000Y-135806000D01*
X144888000Y-135839000D01*
X144877000Y-135871000D01*
X144864000Y-135902000D01*
X144849000Y-135933000D01*
X144833000Y-135963000D01*
X144815000Y-135992000D01*
X144796000Y-136020000D01*
X144775000Y-136047000D01*
X144753000Y-136073000D01*
X144730000Y-136098000D01*
X144705000Y-136121000D01*
X144679000Y-136143000D01*
X144652000Y-136164000D01*
X144624000Y-136183000D01*
X144595000Y-136201000D01*
X144565000Y-136217000D01*
X144534000Y-136232000D01*
X144503000Y-136245000D01*
X144471000Y-136256000D01*
X144438000Y-136266000D01*
X144405000Y-136274000D01*
X144372000Y-136280000D01*
X144338000Y-136284000D01*
X144304000Y-136287000D01*
X144270000Y-136288000D01*
X143670000Y-136288000D01*
X143636000Y-136287000D01*
X143602000Y-136284000D01*
X143568000Y-136280000D01*
X143535000Y-136274000D01*
X143502000Y-136266000D01*
X143469000Y-136256000D01*
X143437000Y-136245000D01*
X143406000Y-136232000D01*
X143375000Y-136217000D01*
X143345000Y-136201000D01*
X143316000Y-136183000D01*
X143288000Y-136164000D01*
X143261000Y-136143000D01*
X143235000Y-136121000D01*
X143210000Y-136098000D01*
X143187000Y-136073000D01*
X143165000Y-136047000D01*
X143144000Y-136020000D01*
X143125000Y-135992000D01*
X143107000Y-135963000D01*
X143091000Y-135933000D01*
X143076000Y-135902000D01*
X143063000Y-135871000D01*
X143052000Y-135839000D01*
X143042000Y-135806000D01*
X143034000Y-135773000D01*
X143028000Y-135740000D01*
X143024000Y-135706000D01*
X143021000Y-135672000D01*
X143020000Y-135638000D01*
X143021000Y-135604000D01*
X143024000Y-135570000D01*
X143028000Y-135536000D01*
X143034000Y-135503000D01*
X143042000Y-135470000D01*
X143052000Y-135437000D01*
X143063000Y-135405000D01*
X143076000Y-135374000D01*
X143091000Y-135343000D01*
X143107000Y-135313000D01*
X143125000Y-135284000D01*
X143144000Y-135256000D01*
X143165000Y-135229000D01*
X143187000Y-135203000D01*
X143210000Y-135178000D01*
X143235000Y-135155000D01*
X143261000Y-135133000D01*
X143288000Y-135112000D01*
X143316000Y-135093000D01*
X143345000Y-135075000D01*
X143375000Y-135059000D01*
X143406000Y-135044000D01*
X143437000Y-135031000D01*
X143469000Y-135020000D01*
X143502000Y-135010000D01*
X143535000Y-135002000D01*
X143568000Y-134996000D01*
X143602000Y-134992000D01*
X143636000Y-134989000D01*
X143670000Y-134988000D01*
X144270000Y-134988000D01*
X144304000Y-134989000D01*
%TD*%
D11*
%TO.C,SW6*%
X166616000Y-70800000D03*
X160116000Y-70800000D03*
X166616000Y-75300000D03*
X160116000Y-75300000D03*
%TD*%
D12*
%TO.C,R6*%
X143637000Y-102870000D03*
D13*
X143637000Y-95250000D03*
%TD*%
D12*
%TO.C,R5*%
X139573000Y-90297000D03*
D13*
X139573000Y-97917000D03*
%TD*%
D12*
%TO.C,R15*%
X161671000Y-87376000D03*
D13*
X161671000Y-79756000D03*
%TD*%
D11*
%TO.C,SW4*%
X160116000Y-58100000D03*
X166616000Y-58100000D03*
X166616000Y-62600000D03*
X160116000Y-62600000D03*
%TD*%
D12*
%TO.C,R8*%
X165735000Y-117856000D03*
D13*
X165735000Y-110236000D03*
%TD*%
D14*
%TO.C,J6*%
X166760000Y-132468000D03*
X166760000Y-128468000D03*
%TD*%
D11*
%TO.C,SW1*%
X142660000Y-45400000D03*
X149160000Y-45400000D03*
X149160000Y-49900000D03*
X142660000Y-49900000D03*
%TD*%
D15*
%TO.C,J7*%
X163195000Y-134620000D03*
D16*
X160655000Y-134620000D03*
%TD*%
D11*
%TO.C,SW3*%
X149160000Y-58100000D03*
X142660000Y-58100000D03*
X149160000Y-62600000D03*
X142660000Y-62600000D03*
%TD*%
D12*
%TO.C,R11*%
X139573000Y-79883000D03*
D13*
X139573000Y-87503000D03*
%TD*%
D15*
%TO.C,SW7*%
X151115000Y-138430000D03*
D16*
X148575000Y-138430000D03*
X146035000Y-138430000D03*
%TD*%
D11*
%TO.C,SW2*%
X166616000Y-45400000D03*
X160116000Y-45400000D03*
X160116000Y-49900000D03*
X166616000Y-49900000D03*
%TD*%
D15*
%TO.C,J2*%
X143510000Y-107061000D03*
%TD*%
D12*
%TO.C,R16*%
X169672000Y-92837000D03*
D13*
X169672000Y-85217000D03*
%TD*%
D15*
%TO.C,J4*%
X139192000Y-107061000D03*
%TD*%
D12*
%TO.C,R7*%
X143637000Y-84836000D03*
D13*
X143637000Y-92456000D03*
%TD*%
D12*
%TO.C,R12*%
X147701000Y-98552000D03*
D13*
X147701000Y-90932000D03*
%TD*%
D11*
%TO.C,REF\u002A\u002A*%
X154638000Y-43815000D03*
%TD*%
D12*
%TO.C,R1*%
X165735000Y-79756000D03*
D13*
X165735000Y-87376000D03*
%TD*%
D12*
%TO.C,R13*%
X169672000Y-103124000D03*
D13*
X169672000Y-95504000D03*
%TD*%
D11*
%TO.C,REF\u002A\u002A*%
X154638000Y-90375000D03*
%TD*%
%TO.C,REF\u002A\u002A*%
X154638000Y-135072000D03*
%TD*%
D12*
%TO.C,R3*%
X139319000Y-124841000D03*
D13*
X139319000Y-117221000D03*
%TD*%
D12*
%TO.C,R14*%
X161671000Y-97663000D03*
D13*
X161671000Y-90043000D03*
%TD*%
D15*
%TO.C,J3*%
X139319000Y-100965000D03*
%TD*%
D12*
%TO.C,R9*%
X165735000Y-107950000D03*
D13*
X165735000Y-100330000D03*
%TD*%
D15*
%TO.C,J8*%
X163211000Y-138430000D03*
D16*
X160671000Y-138430000D03*
X158131000Y-138430000D03*
%TD*%
D15*
%TO.C,J5*%
X147340000Y-134595000D03*
D16*
X149880000Y-134595000D03*
%TD*%
D12*
%TO.C,R2*%
X147574000Y-80391000D03*
D13*
X147574000Y-88011000D03*
%TD*%
D12*
%TO.C,R4*%
X143002000Y-124841000D03*
D13*
X143002000Y-117221000D03*
%TD*%
D11*
%TO.C,SW5*%
X149160000Y-70800000D03*
X142660000Y-70800000D03*
X142660000Y-75300000D03*
X149160000Y-75300000D03*
%TD*%
D12*
%TO.C,R10*%
X165735000Y-97663000D03*
D13*
X165735000Y-90043000D03*
%TD*%
D17*
%TO.C,U3*%
X151536000Y-118378000D03*
D18*
X157836000Y-116078000D03*
D17*
X151536000Y-116078000D03*
X151536000Y-113778000D03*
%TD*%
D19*
%TO.C,U2*%
X170876000Y-117977500D03*
X169926000Y-117977500D03*
X168976000Y-117977500D03*
X168976000Y-115702500D03*
X170876000Y-115702500D03*
%TD*%
M02*
