M48
; DRILL file {KiCad (6.0.5)} date Tue Aug  2 11:06:43 2022
; FORMAT={-:-/ absolute / inch / decimal}
; #@! TF.CreationDate,2022-08-02T11:06:43+05:30
; #@! TF.GenerationSoftware,Kicad,Pcbnew,(6.0.5)
; #@! TF.FileFunction,Plated,1,2,PTH
FMAT,2
INCH
; #@! TA.AperFunction,Plated,PTH,ViaDrill
T1C0.0157
; #@! TA.AperFunction,Plated,PTH,ComponentDrill
T2C0.0236
; #@! TA.AperFunction,Plated,PTH,ComponentDrill
T3C0.0315
; #@! TA.AperFunction,Plated,PTH,ComponentDrill
T4C0.0394
; #@! TA.AperFunction,Plated,PTH,ComponentDrill
T5C0.0433
%
G90
G05
T1
X5.43Y-4.91
X5.46Y-4.52
X5.4857Y-4.2957
X5.515Y-3.7
X5.52Y-5.15
X5.56Y-5.08
X5.5682Y-4.2132
X5.61Y-5.03
X5.61Y-5.14
X5.71Y-4.53
X5.7118Y-4.312
X5.715Y-4.48
X5.83Y-4.13
X5.865Y-4.695
X5.9315Y-3.78
X5.9448Y-4.202
X5.96Y-3.965
X5.99Y-4.41
X6.02Y-3.95
X6.025Y-4.66
X6.0524Y-4.6062
X6.0822Y-4.9112
X6.11Y-4.2
X6.115Y-4.605
X6.1711Y-4.2
X6.1956Y-4.7544
X6.22Y-3.94
X6.28Y-4.73
X6.3Y-4.5343
X6.3106Y-4.8694
X6.3272Y-3.9772
X6.335Y-4.255
X6.39Y-4.265
X6.44Y-3.49
X6.44Y-3.98
X6.47Y-3.8615
X6.47Y-4.59
X6.4776Y-5.3576
X6.48Y-4.71
X6.49Y-5.17
X6.595Y-4.215
X6.595Y-4.4
X6.6027Y-3.9127
X6.625Y-3.75
X6.65Y-5.36
X6.665Y-2.805
X6.69Y-4.85
X6.692Y-4.55
X6.7528Y-2.845
T3
X5.485Y-4.615
X5.485Y-4.915
X5.495Y-3.145
X5.495Y-3.445
X5.495Y-3.555
X5.495Y-3.855
X5.63Y-4.615
X5.63Y-4.915
X5.655Y-3.34
X5.655Y-3.64
X5.655Y-3.75
X5.655Y-4.05
X5.81Y-3.165
X5.81Y-3.465
X5.815Y-3.58
X5.815Y-3.88
X6.365Y-3.14
X6.365Y-3.44
X6.365Y-3.545
X6.365Y-3.845
X6.525Y-3.14
X6.525Y-3.44
X6.525Y-3.545
X6.525Y-3.845
X6.525Y-3.95
X6.525Y-4.25
X6.525Y-4.34
X6.525Y-4.64
X6.68Y-3.355
X6.68Y-3.655
X6.68Y-3.76
X6.68Y-4.06
T4
X5.48Y-4.215
X5.485Y-3.975
X5.65Y-4.215
X5.7494Y-5.45
X5.8008Y-5.299
X5.8494Y-5.45
X5.9008Y-5.299
X5.9494Y-5.45
X6.2256Y-5.45
X6.325Y-5.3
X6.3256Y-5.45
X6.425Y-5.3
X6.4256Y-5.45
T5
X5.6165Y-1.7874
X5.6165Y-1.9646
X5.6165Y-2.2874
X5.6165Y-2.4646
X5.6165Y-2.7874
X5.6165Y-2.9646
X5.8724Y-1.7874
X5.8724Y-1.9646
X5.8724Y-2.2874
X5.8724Y-2.4646
X5.8724Y-2.7874
X5.8724Y-2.9646
X6.3038Y-1.7874
X6.3038Y-1.9646
X6.3038Y-2.2874
X6.3038Y-2.4646
X6.3038Y-2.7874
X6.3038Y-2.9646
X6.5597Y-1.7874
X6.5597Y-1.9646
X6.5597Y-2.2874
X6.5597Y-2.4646
X6.5597Y-2.7874
X6.5597Y-2.9646
T2
G00X5.5303Y-4.9999
M15
G01X5.5067Y-4.9999
M16
G05
G00X5.5303Y-5.3401
M15
G01X5.5067Y-5.3401
M16
G05
G00X5.6799Y-4.9999
M15
G01X5.6563Y-4.9999
M16
G05
G00X5.6799Y-5.3401
M15
G01X5.6563Y-5.3401
M16
G05
T0
M30
